<svg width="27" height="33" viewBox="0 0 27 33" fill="none" xmlns="http://www.w3.org/2000/svg">
<path d="M13.7882 8.65367C15.7735 8.91089 17.6838 9.68464 19.2895 10.8789C19.6124 11.1329 19.9447 11.3686 20.2355 11.6621C21.4832 12.8159 22.4785 14.2353 23.1294 15.8064C23.6202 16.9776 23.9021 18.2232 24.0029 19.4883C24.3504 19.5308 24.688 19.6007 25.0066 19.7508C25.8223 20.1146 26.4281 20.85 26.6748 21.7041C26.8129 22.2059 26.8617 22.7408 26.7651 23.2552C26.6097 24.24 26.0449 25.1518 25.2234 25.7182C24.6491 26.1198 23.9378 26.3497 23.236 26.3314C22.9667 26.3287 22.709 26.2474 22.4418 26.2374C22.3447 26.3513 22.2722 26.4915 22.1919 26.618C21.2124 28.1728 19.8523 29.4794 18.2738 30.4185C16.7987 31.2967 15.1294 31.8442 13.4202 32.0101C12.8386 32.0468 12.2722 32.1177 11.689 32.0489C8.97562 31.9282 6.331 30.8185 4.33205 28.9818C2.80817 27.5881 1.66329 25.7886 1.04911 23.8169C0.676936 22.6174 0.491634 21.3613 0.520506 20.1051C0.547802 17.9875 1.17825 15.8752 2.30213 14.081C3.30476 12.4636 4.71211 11.1109 6.35463 10.1529C7.91001 9.2458 9.68009 8.69986 11.4775 8.5849C12.247 8.50774 13.0229 8.56548 13.7882 8.65367Z" fill="black"/>
<path d="M12.0551 8.87448C14.5994 8.80152 17.1637 9.64614 19.1842 11.1905C19.528 11.4036 19.7994 11.6887 20.0955 11.959C21.3727 13.1469 22.3632 14.6335 22.979 16.2645C23.369 17.2939 23.6015 18.3747 23.6908 19.4713C23.2241 19.5102 22.7805 19.5942 22.3585 19.8062C22.2435 19.8603 22.2593 20.0661 22.3942 20.0808C22.5175 20.0929 22.6556 20.0015 22.7742 19.9653C23.5417 19.6834 24.4183 19.7369 25.1249 20.1585C25.7385 20.5144 26.1795 21.1118 26.379 21.7889C26.5154 22.222 26.5196 22.7028 26.4713 23.1511C26.3401 24.0619 25.8231 24.9217 25.0682 25.4509C24.2435 26.0456 23.117 26.2194 22.1847 25.7763C22.0183 25.7013 21.8729 25.5884 21.7081 25.5112C21.5532 25.454 21.4519 25.6577 21.5664 25.7606C21.7328 25.9055 21.9517 25.9978 22.1438 26.1049C21.0866 27.8976 19.548 29.3963 17.7128 30.3816C16.1275 31.2377 14.3301 31.7217 12.5275 31.7543C11.0771 31.7921 9.62306 31.5422 8.26452 31.0341C6.67292 30.444 5.2283 29.4892 4.04563 28.2729C2.8556 27.0461 1.95009 25.5495 1.41046 23.928C0.625154 21.5847 0.627779 18.9931 1.42463 16.653C2.00468 14.9175 3.01413 13.3349 4.33119 12.0656C5.88867 10.5574 7.88237 9.51753 10.0073 9.09076C10.6792 8.95847 11.369 8.86818 12.0551 8.87448Z" fill="#ECAD80"/>
<path d="M24.7608 21.2276C24.8988 21.2224 24.9413 21.4271 24.8322 21.4891C24.6385 21.5851 24.4217 21.6345 24.2211 21.7174C23.9156 21.8245 23.629 21.9673 23.3455 22.1227C23.5707 22.2455 23.8106 22.3715 24.0127 22.53C24.1482 22.6397 24.2673 22.7583 24.2925 22.9394C24.2789 23.1279 24.1492 23.2833 24.0064 23.3956C23.6988 23.6402 23.2757 23.7725 22.9151 23.9342C22.8232 23.9667 22.6825 24.0387 22.6217 23.9206C22.5681 23.8292 22.6185 23.7573 22.7041 23.7174C23.0531 23.5442 23.4841 23.4224 23.7954 23.1841C23.8673 23.1242 23.9734 23.0402 23.9849 22.9415C23.7713 22.646 23.3329 22.4906 23.028 22.3069C22.9051 22.2166 22.9077 22.0843 23.0196 21.9851C23.4012 21.6891 23.9109 21.499 24.3618 21.3353C24.4888 21.2917 24.6259 21.2329 24.7608 21.2276Z" fill="black"/>
<path d="M13.8929 17.9048C14.7544 17.9316 15.59 18.2912 16.199 18.9012C16.5013 19.1957 16.7213 19.5474 16.9129 19.9211C17.326 19.6539 17.7423 19.392 18.1601 19.1321C18.2257 19.1894 18.2872 19.2503 18.347 19.3138C18.1806 19.4985 17.9759 19.5967 17.7717 19.73C17.5213 19.8891 17.2704 20.0466 17.021 20.2067C17.1874 20.7316 17.2588 21.277 17.168 21.824C17.0604 22.6072 16.6646 23.339 16.0788 23.8676C15.4709 24.4219 14.6635 24.7453 13.8399 24.7516C13.1586 24.7694 12.4714 24.5689 11.9029 24.1936C11.2499 23.7705 10.758 23.1169 10.5171 22.3783C10.2772 21.6172 10.304 20.7647 10.611 20.0261C10.895 19.3237 11.4278 18.7232 12.0872 18.351C12.6284 18.034 13.2688 17.8865 13.8929 17.9048Z" fill="black"/>
<path d="M13.3822 18.228C14.1513 18.1351 14.9187 18.3131 15.5554 18.7551C16.2095 19.2002 16.6772 19.9031 16.8394 20.6774C16.977 21.3262 16.9045 22.017 16.6258 22.6207C16.3045 23.3367 15.6982 23.9278 14.968 24.2181C14.4316 24.4401 13.8358 24.5147 13.2631 24.4107C12.4016 24.2716 11.6106 23.7482 11.145 23.0102C10.851 22.5498 10.6862 22.016 10.6531 21.4716C10.6211 20.7126 10.8751 19.9414 11.357 19.353C11.8541 18.7351 12.5969 18.3262 13.3822 18.228Z" fill="white"/>
<path d="M6.28389 19.4722C6.8482 19.7888 7.29387 20.3006 7.53691 20.9001C7.72011 21.3468 7.77523 21.8334 7.72641 22.3121C7.63245 23.2114 7.08809 24.0371 6.30384 24.4843C5.43822 24.9904 4.32694 24.9972 3.45345 24.5058C2.69649 24.0864 2.15423 23.3221 2.01513 22.467C1.92011 21.9998 1.98153 21.5394 2.11434 21.0869C1.80883 20.8964 1.47759 20.7394 1.18311 20.5331C1.08074 20.4754 1.10752 20.3169 1.2188 20.2896C1.30542 20.2644 1.38573 20.3205 1.46027 20.3568C1.71381 20.5053 1.96631 20.6539 2.22038 20.8014C2.56578 20.0596 3.19938 19.4785 3.98363 19.2334C4.74059 18.9888 5.59308 19.0785 6.28389 19.4722Z" fill="black"/>
<path d="M4.40583 19.4367C5.19481 19.2907 6.02998 19.539 6.61633 20.085C7.14442 20.57 7.45098 21.2776 7.45255 21.9941C7.44363 22.4167 7.33602 22.843 7.13392 23.2151C6.76961 23.8881 6.10295 24.381 5.35019 24.5222C4.92657 24.6125 4.49822 24.5794 4.08615 24.4508C3.08352 24.1422 2.33759 23.2025 2.28142 22.1521C2.22998 21.4808 2.4641 20.802 2.90347 20.2933C3.2872 19.8456 3.82578 19.5416 4.40583 19.4367Z" fill="white"/>
<path d="M12.2276 20.1145C12.6145 20.0672 13.026 20.2079 13.2906 20.4971C13.4911 20.716 13.6203 21.011 13.6271 21.3092C13.6418 21.6903 13.468 22.0809 13.1688 22.3192C12.8035 22.6252 12.2638 22.6824 11.8376 22.4746C11.384 22.2593 11.0906 21.7601 11.1352 21.2578C11.172 20.673 11.6465 20.1811 12.2276 20.1145ZM3.37039 20.8835C3.96934 20.6803 4.64807 21.041 4.81605 21.6494C5.01395 22.263 4.60503 22.9544 3.97458 23.0835C3.41658 23.2226 2.80976 22.8977 2.6276 22.3517C2.42183 21.7675 2.77196 21.0609 3.37039 20.8835Z" fill="black"/>
<path d="M12.0157 15.8192C12.3396 15.7972 12.7028 15.7872 12.9842 15.9741C13.1774 16.1022 13.2677 16.3074 13.2194 16.5379C13.138 16.8612 12.8719 17.1111 12.6099 17.299C12.1391 17.6292 11.5753 17.8366 11.0052 17.9043C10.7107 17.9321 10.349 17.9269 10.0881 17.7704C9.8976 17.6586 9.77844 17.4492 9.81518 17.2266C9.86873 16.9248 10.1034 16.6759 10.337 16.4938C10.8194 16.1248 11.4157 15.8985 12.0157 15.8192ZM5.13802 16.7048C5.61623 16.6859 6.09917 16.7316 6.51912 16.9799C6.72122 17.0985 6.90442 17.2891 6.93329 17.5305C6.95114 17.7515 6.83041 17.94 6.66085 18.0696C6.42358 18.256 6.14274 18.3321 5.85088 18.3841C5.32857 18.4376 4.77214 18.4009 4.30337 18.1437C4.10022 18.0234 3.88972 17.8366 3.85875 17.5888C3.82043 17.3647 3.96479 17.1442 4.14169 17.0198C4.42516 16.8166 4.79419 16.7211 5.13802 16.7048Z" fill="black"/>
<path d="M11.9935 25.1982C12.5678 25.2696 13.1405 25.5636 13.4224 26.088C13.6003 26.4166 13.6791 26.8349 13.5951 27.2019C13.519 27.7452 13.2003 28.2544 12.8339 28.6517C12.215 29.3011 11.372 29.7399 10.4822 29.8612C9.73525 29.9893 8.95362 29.9279 8.23131 29.7032C7.77199 29.5562 7.35992 29.3079 6.98144 29.0129C6.54522 28.658 6.1531 28.2071 5.95362 27.6754C5.84076 27.3893 5.81189 27.0712 5.86071 26.7683C5.9237 26.4061 6.19824 26.1058 6.53315 25.9672C6.88695 25.8245 7.27173 25.7961 7.64548 25.8712C8.11897 25.9347 8.52475 26.1357 8.9426 26.3525C9.71215 25.5567 10.8812 25.0622 11.9935 25.1982Z" fill="black"/>
<path d="M11.7408 25.4874C12.2032 25.5036 12.6557 25.6601 12.9838 25.9955C12.8258 26.186 12.6253 26.3273 12.4059 26.4391C12.3177 26.4868 12.2153 26.5283 12.1408 26.596C12.0132 26.7519 11.9513 27.0265 11.7917 27.1467C11.6059 27.0879 11.4358 26.9456 11.2704 26.8422C10.513 27.0217 9.73658 27.0984 8.95863 27.0826C8.37858 27.0947 7.80167 27.0475 7.2295 26.953C7.13448 26.9388 7.0148 26.901 6.92241 26.9357C6.80797 27.0112 6.71558 27.1241 6.61742 27.2196C6.52136 27.0706 6.42425 26.922 6.33081 26.7708C6.28304 26.7488 6.23527 26.7273 6.1875 26.7052C6.33081 26.3908 6.62687 26.206 6.96283 26.1608C7.57595 26.0748 8.22739 26.2989 8.74813 26.6123C8.85049 26.6658 8.93763 26.7346 9.05154 26.6585C9.2001 26.5451 9.32241 26.4002 9.47201 26.2868C10.0993 25.7834 10.9292 25.449 11.7408 25.4874Z" fill="white"/>
<path d="M13.1752 26.2627C13.3112 26.5651 13.3443 26.8627 13.2876 27.1897C13.1842 27.6895 12.917 28.1236 12.5616 28.4842C11.9936 29.0763 11.1747 29.4343 10.3742 29.5666C9.78785 29.6385 9.16527 29.6354 8.59257 29.4779C7.82092 29.2748 7.11645 28.8448 6.61882 28.216C6.3448 27.8601 6.13745 27.4737 6.12695 27.0139C6.26291 27.154 6.3301 27.3409 6.45819 27.4842C6.67918 27.6564 6.86396 27.3735 7.00989 27.2396C7.93535 27.3703 8.91908 27.4685 9.85031 27.3635C10.3133 27.342 10.7684 27.2653 11.2225 27.1766C11.4167 27.2517 11.6598 27.4874 11.8886 27.4359C12.2057 27.3178 12.2067 26.8144 12.5322 26.7215C12.7275 26.6275 12.9023 26.5084 13.0634 26.3635C13.1007 26.3304 13.138 26.2968 13.1752 26.2627Z" fill="#8F2E45"/>
<path d="M19.1637 -2.44541C19.2624 -2.47638 19.3521 -2.50788 19.4555 -2.47586C19.5012 -2.42756 19.5437 -2.37612 19.5836 -2.32205C19.4041 -2.05643 19.2681 -1.77192 19.1275 -1.48478C18.486 -0.160372 18.0561 1.35931 18.1017 2.83858C18.8786 2.76036 19.6723 2.75721 20.454 2.77611C21.5243 2.79763 22.5647 2.94619 23.6162 3.13464C23.7185 3.15669 23.7988 3.19081 23.8099 3.30734C23.8156 3.4685 23.6592 3.49212 23.55 3.56981C22.9542 3.92519 22.423 4.40288 21.9238 4.88162C21.1353 5.6433 20.5149 6.60446 20.0062 7.57034C21.5815 7.8433 23.1002 8.61706 24.37 9.57349C24.475 9.65433 24.6083 9.74357 24.6702 9.86273C24.6445 10.0811 24.4277 10.0905 24.2634 10.1635C23.2482 10.51 22.328 11.0291 21.4261 11.6024C22.1017 12.0186 22.7453 12.4921 23.3322 13.027C23.4172 13.1157 23.5191 13.1882 23.4902 13.3273C23.4813 13.4244 23.3374 13.4785 23.2618 13.5173C22.8534 13.6953 22.4335 13.8549 22.0109 13.9961C21.8928 14.036 21.8414 13.9924 21.7778 13.8974C21.2345 13.0207 20.4718 12.2486 19.6886 11.5835C19.0524 11.0486 18.3626 10.5604 17.6235 10.1787C17.4855 10.11 17.36 10.0438 17.2015 10.0449C16.9044 10.0449 16.6041 10.0564 16.307 10.0722C14.6282 10.2034 12.9694 10.6155 11.4261 11.2884C10.6057 11.6533 9.78362 12.1031 9.09491 12.6837C8.98677 12.7682 8.88073 12.8974 8.74897 12.9415C8.44241 12.8958 8.14373 12.7646 7.85396 12.6585C6.86709 12.2916 6.01302 11.6129 5.28598 10.8648C4.70488 10.29 4.21932 9.64383 3.77837 8.95774C3.45239 8.4601 3.1495 7.95564 2.9138 7.40813C2.84294 7.23805 2.7495 7.05958 2.72168 6.87637C2.72325 6.80971 2.78677 6.6874 2.86656 6.70944C3.03034 6.76194 3.18047 6.85853 3.33743 6.92887C3.64976 7.07952 3.97732 7.17454 4.3117 7.2622C4.9453 7.4391 5.60199 7.56614 6.24871 7.6958C6.18467 7.2916 6.18624 6.88635 6.20462 6.479C6.27601 5.32677 6.57785 4.21443 7.01092 3.14829C7.34478 2.31837 7.7768 1.53044 8.28493 0.795009C8.83611 0.000783205 9.46709 -0.752498 10.2062 -1.37822C10.3422 -1.47901 10.4923 -1.61024 10.6645 -1.49581C10.7778 -1.44594 10.7227 -1.3021 10.7159 -1.20814C10.5201 -0.312603 10.6981 0.610757 10.9437 1.47795C11.0792 1.96614 11.2944 2.41758 11.518 2.8706C11.7054 2.62231 11.9059 2.39186 12.1248 2.17086C13.2146 1.0685 14.4876 0.114169 15.7847 -0.730451C16.8492 -1.39659 17.981 -2.01707 19.1637 -2.44541Z" fill="black"/>
<path d="M19.1284 -2.10547C18.3972 -0.785259 17.9048 0.638363 17.8082 2.15227C17.7962 2.43731 17.804 2.7234 17.8025 3.00844C17.8581 3.05254 17.9106 3.13968 17.9857 3.13863C18.3185 3.11448 18.6492 3.06251 18.9846 3.06146C19.5773 3.06199 20.1673 3.04624 20.7589 3.09558C21.6166 3.11973 22.455 3.24466 23.299 3.38954C22.5526 3.87196 21.8739 4.46828 21.2728 5.1213C20.6628 5.82576 20.1521 6.63259 19.7195 7.45674C19.6754 7.5507 19.6088 7.66041 19.667 7.76277C19.7242 7.82944 19.7972 7.82262 19.877 7.83889C20.1956 7.87826 20.5059 7.95857 20.8119 8.05464C22.0513 8.44519 23.2203 9.07616 24.2492 9.86776C23.8623 10.0053 23.4786 10.1475 23.1059 10.3208C22.4875 10.5948 21.8906 10.9507 21.3169 11.3087C21.1962 11.399 20.9059 11.5176 21.0219 11.7113C21.1867 11.8142 21.3683 11.8856 21.5274 11.999C22.0844 12.3748 22.6287 12.7827 23.1153 13.2473C22.7521 13.409 22.3788 13.5439 22.004 13.6772C21.4786 12.8599 20.8214 12.1801 20.1006 11.535C19.3227 10.8578 18.4733 10.2431 17.54 9.79847C17.4313 9.7444 17.3185 9.74073 17.1998 9.7423C15.2329 9.74597 13.2634 10.1838 11.4529 10.9449C10.4529 11.3754 9.50692 11.9024 8.68855 12.6273C8.36834 12.5297 8.0539 12.4137 7.74472 12.2851C7.14367 12.0284 6.61506 11.662 6.12162 11.2368C5.4875 10.6772 4.90902 10.0588 4.42293 9.3654C3.93369 8.65674 3.4602 7.9717 3.12109 7.17485C4.07175 7.59637 5.15732 7.77117 6.17516 7.96277C6.3127 7.96592 6.50955 8.06304 6.56519 7.88298C6.55679 7.73968 6.52057 7.59794 6.5043 7.45516C6.43186 6.94388 6.50377 6.39059 6.56414 5.87826C6.83711 4.1045 7.54104 2.39112 8.56939 0.921303C9.10535 0.156999 9.70115 -0.550088 10.414 -1.15691C10.3405 -0.688671 10.3416 -0.208881 10.3825 0.26251C10.4864 1.11238 10.7221 1.95805 11.108 2.72498C11.1983 2.89506 11.2681 3.09033 11.3893 3.24046C11.4445 3.30765 11.5741 3.33023 11.6208 3.24204C11.8948 2.7717 12.2901 2.41842 12.6812 2.04151C13.6875 1.10818 14.792 0.277734 15.9426 -0.468198C16.9515 -1.09969 18.0124 -1.68605 19.1284 -2.10547Z" fill="#6A4E35"/>
</svg>
