<svg width="32" height="30" viewBox="0 0 32 30" fill="none" xmlns="http://www.w3.org/2000/svg">
<path d="M14.7872 4.65367C16.7725 4.91089 18.6828 5.68464 20.2886 6.87887C20.6114 7.13294 20.9437 7.36863 21.2345 7.66207C22.4823 8.81587 23.4775 10.2353 24.1285 11.8064C24.6193 12.9776 24.9012 14.2232 25.0019 15.4883C25.3494 15.5308 25.687 15.6007 26.0056 15.7508C26.8214 16.1146 27.4271 16.85 27.6739 17.7041C27.8119 18.2059 27.8607 18.7408 27.7641 19.2552C27.6088 20.24 27.0439 21.1518 26.2224 21.7182C25.6481 22.1198 24.9368 22.3497 24.235 22.3314C23.9657 22.3287 23.708 22.2474 23.4408 22.2374C23.3437 22.3513 23.2712 22.4915 23.1909 22.618C22.2114 24.1728 20.8513 25.4794 19.2728 26.4185C17.7977 27.2967 16.1285 27.8442 14.4193 28.0101C13.8376 28.0468 13.2712 28.1177 12.688 28.0489C9.97465 27.9282 7.33003 26.8185 5.33108 24.9818C3.80719 23.5881 2.66231 21.7886 2.04814 19.8169C1.67596 18.6174 1.49066 17.3613 1.51953 16.1051C1.54683 13.9875 2.17727 11.8752 3.30116 10.081C4.30378 8.46364 5.71113 7.11089 7.35365 6.15288C8.90903 5.2458 10.6791 4.69986 12.4765 4.5849C13.246 4.50774 14.0219 4.56548 14.7872 4.65367Z" fill="black"/>
<path d="M13.0551 4.87448C15.5994 4.80152 18.1637 5.64614 20.1842 7.19049C20.528 7.40362 20.7994 7.68866 21.0955 7.959C22.3727 9.14692 23.3632 10.6335 23.979 12.2645C24.369 13.2939 24.6015 14.3747 24.6908 15.4713C24.2241 15.5102 23.7805 15.5942 23.3585 15.8062C23.2435 15.8603 23.2593 16.0661 23.3942 16.0808C23.5175 16.0929 23.6556 16.0015 23.7742 15.9653C24.5417 15.6834 25.4183 15.7369 26.1249 16.1585C26.7385 16.5144 27.1795 17.1118 27.379 17.7889C27.5154 18.222 27.5196 18.7028 27.4713 19.1511C27.3401 20.0619 26.8231 20.9217 26.0682 21.4509C25.2435 22.0456 24.117 22.2194 23.1847 21.7763C23.0183 21.7013 22.8729 21.5884 22.7081 21.5112C22.5532 21.454 22.4519 21.6577 22.5664 21.7606C22.7328 21.9055 22.9517 21.9978 23.1438 22.1049C22.0866 23.8976 20.548 25.3963 18.7128 26.3816C17.1275 27.2377 15.3301 27.7217 13.5275 27.7543C12.0771 27.7921 10.6231 27.5422 9.26452 27.0341C7.67292 26.444 6.2283 25.4892 5.04563 24.2729C3.8556 23.0461 2.95009 21.5495 2.41046 19.928C1.62515 17.5847 1.62778 14.9931 2.42463 12.653C3.00468 10.9175 4.01413 9.33485 5.33119 8.06556C6.88867 6.55742 8.88237 5.51753 11.0073 5.09076C11.6792 4.95847 12.369 4.86818 13.0551 4.87448Z" fill="#9E5622"/>
<path d="M25.7598 17.2286C25.8978 17.2234 25.9404 17.4281 25.8312 17.49C25.6375 17.5861 25.4207 17.6354 25.2202 17.7184C24.9146 17.8255 24.628 17.9682 24.3446 18.1236C24.5698 18.2465 24.8097 18.3724 25.0118 18.531C25.1472 18.6407 25.2663 18.7593 25.2915 18.9404C25.2779 19.1289 25.1482 19.2843 25.0055 19.3966C24.6978 19.6412 24.2747 19.7735 23.9141 19.9352C23.8223 19.9677 23.6816 20.0396 23.6207 19.9215C23.5671 19.8302 23.6175 19.7583 23.7031 19.7184C24.0522 19.5451 24.4831 19.4234 24.7944 19.185C24.8663 19.1252 24.9724 19.0412 24.9839 18.9425C24.7703 18.647 24.332 18.4916 24.027 18.3079C23.9041 18.2176 23.9068 18.0853 24.0186 17.9861C24.4002 17.69 24.9099 17.5 25.3608 17.3362C25.4879 17.2927 25.6249 17.2339 25.7598 17.2286Z" fill="black"/>
<path d="M14.892 13.9058C15.7534 13.9326 16.5891 14.2922 17.198 14.9021C17.5004 15.1966 17.7203 15.5483 17.9119 15.9221C18.325 15.6549 18.7413 15.393 19.1592 15.1331C19.2248 15.1903 19.2862 15.2512 19.346 15.3147C19.1796 15.4995 18.9749 15.5977 18.7707 15.731C18.5203 15.8901 18.2694 16.0476 18.02 16.2077C18.1864 16.7326 18.2578 17.278 18.167 17.825C18.0594 18.6082 17.6636 19.3399 17.0778 19.8686C16.4699 20.4229 15.6626 20.7462 14.8389 20.7525C14.1576 20.7704 13.4704 20.5699 12.9019 20.1945C12.2489 19.7714 11.7571 19.1179 11.5161 18.3793C11.2762 17.6182 11.303 16.7657 11.6101 16.0271C11.8941 15.3247 12.4269 14.7242 13.0862 14.352C13.6274 14.035 14.2678 13.8874 14.892 13.9058Z" fill="black"/>
<path d="M14.3812 14.229C15.1503 14.1361 15.9177 14.3141 16.5545 14.756C17.2085 15.2012 17.6763 15.9041 17.8385 16.6784C17.976 17.3272 17.9036 18.018 17.6248 18.6217C17.3036 19.3377 16.6973 19.9288 15.9671 20.219C15.4306 20.4411 14.8348 20.5156 14.2621 20.4117C13.4007 20.2726 12.6096 19.7492 12.144 19.0112C11.85 18.5508 11.6852 18.0169 11.6521 17.4726C11.6201 16.7135 11.8742 15.9424 12.356 15.354C12.8532 14.7361 13.5959 14.3272 14.3812 14.229Z" fill="white"/>
<path d="M7.28292 15.4732C7.84722 15.7898 8.29289 16.3016 8.53593 16.901C8.71914 17.3478 8.77425 17.8344 8.72544 18.3131C8.63147 19.2123 8.08712 20.038 7.30286 20.4853C6.43725 20.9913 5.32596 20.9982 4.45247 20.5068C3.69552 20.0874 3.15326 19.3231 3.01415 18.468C2.91914 18.0008 2.98055 17.5404 3.11336 17.0879C2.80785 16.8974 2.47662 16.7404 2.18213 16.5341C2.07977 16.4764 2.10654 16.3178 2.21782 16.2905C2.30444 16.2653 2.38475 16.3215 2.4593 16.3577C2.71284 16.5063 2.96533 16.6548 3.2194 16.8024C3.56481 16.0606 4.1984 15.4795 4.98265 15.2344C5.73961 14.9898 6.5921 15.0795 7.28292 15.4732Z" fill="black"/>
<path d="M5.40486 15.4376C6.19383 15.2917 7.02901 15.54 7.61536 16.0859C8.14344 16.571 8.45 17.2786 8.45158 17.9951C8.44265 18.4177 8.33504 18.8439 8.13294 19.2161C7.76864 19.8891 7.10197 20.382 6.34922 20.5232C5.92559 20.6135 5.49725 20.5804 5.08517 20.4518C4.08255 20.1431 3.33662 19.2035 3.28045 18.1531C3.229 17.4817 3.46313 16.803 3.9025 16.2943C4.28622 15.8466 4.8248 15.5426 5.40486 15.4376Z" fill="white"/>
<path d="M13.2266 16.1154C13.6135 16.0682 14.0251 16.2089 14.2896 16.4981C14.4901 16.717 14.6193 17.012 14.6261 17.3102C14.6408 17.6913 14.467 18.0818 14.1678 18.3202C13.8025 18.6262 13.2628 18.6834 12.8366 18.4755C12.3831 18.2603 12.0896 17.7611 12.1342 17.2587C12.171 16.674 12.6455 16.1821 13.2266 16.1154ZM4.36941 16.8845C4.96836 16.6813 5.6471 17.0419 5.81508 17.6503C6.01298 18.264 5.60405 18.9553 4.97361 19.0845C4.4156 19.2236 3.80878 18.8986 3.62663 18.3527C3.42085 17.7685 3.77098 17.0619 4.36941 16.8845Z" fill="black"/>
<path d="M17.7552 12.7191C17.8387 12.7722 17.8119 12.8693 17.8203 12.9543C17.8171 13.5496 17.8177 14.1459 17.814 14.7412C17.8308 14.8855 17.6869 14.9627 17.5715 15.0036C15.4722 15.7249 13.3657 16.4341 11.2696 17.1622C11.1368 17.1727 11.1205 17.0703 11.0854 16.9701C10.9998 16.6551 10.9121 16.3412 10.8224 16.0278C10.8733 16.3296 10.8738 16.6399 10.8938 16.9449C10.8927 17.0204 10.9174 17.1517 10.8418 17.1994C10.7394 17.2729 10.6282 17.2063 10.6003 17.0929C10.4093 16.4246 10.2318 15.7501 10.0408 15.0813C10.0203 14.9853 10.0066 14.8761 10.1121 14.8252C10.2229 14.7994 10.2911 14.8498 10.3221 14.9533C10.3888 15.1921 10.456 15.4315 10.5153 15.6724C10.477 15.3973 10.4659 15.1218 10.4534 14.8446C10.4528 14.7779 10.446 14.6488 10.5405 14.6456C10.6177 14.632 10.6969 14.6257 10.773 14.6078C12.9373 13.9916 15.0969 13.3774 17.2612 12.759C17.4329 12.7134 17.5772 12.6498 17.7552 12.7191ZM2.55624 14.4178C3.27225 14.4908 3.99246 14.4934 4.70847 14.5533C5.81293 14.6084 6.91897 14.6934 8.02291 14.7328C8.43183 14.7737 8.84233 14.7916 9.25335 14.821C9.39876 14.9359 9.31004 15.2451 9.35361 15.4157C9.38301 15.2598 9.36306 15.053 9.4544 14.9191C9.56726 14.8246 9.72107 14.9102 9.70427 15.0535C9.58039 15.79 9.45388 16.5307 9.33576 17.2677C9.29377 17.4215 9.10059 17.4021 9.05807 17.2598C9.0439 17.0015 9.04705 16.7407 9.04338 16.4813C8.98931 16.7065 8.96621 16.9375 8.91372 17.1627C8.89115 17.2488 8.8523 17.3118 8.75099 17.2887C6.67855 16.927 4.58301 16.5417 2.51109 16.1711C2.41241 16.1606 2.36254 16.0945 2.34889 16C2.27277 15.5811 2.21765 15.158 2.13262 14.7407C2.12054 14.6504 2.09377 14.5758 2.16201 14.5002C2.2733 14.38 2.40978 14.412 2.55624 14.4178Z" fill="black"/>
<path d="M15.9943 21.4951C16.1213 21.5476 16.0951 21.6736 16.0667 21.7812C15.7108 22.482 15.2226 23.103 14.5786 23.5607C13.6762 24.2164 12.5376 24.5266 11.4279 24.4836C10.0205 24.4332 8.64207 23.8515 7.57278 22.945C7.55178 22.818 7.54705 22.7502 7.64889 22.6605C10.3696 22.2862 13.2541 21.8715 15.9943 21.4951Z" fill="black"/>
<path d="M15.6727 21.8535C15.2439 22.6435 14.5714 23.295 13.7635 23.6903C13.1095 24.0115 12.3672 24.1858 11.6381 24.1727C10.341 24.1821 9.06538 23.6997 8.03809 22.9197C10.5541 22.5737 13.1683 22.1952 15.6727 21.8535Z" fill="#8F2E45"/>
<path d="M25.1734 1.41353C25.9561 2.13059 26.4968 3.09962 26.6931 4.14319C26.9744 6.39935 26.9776 8.65237 27.3178 10.9075C27.5545 12.5763 27.8779 14.3784 28.6548 15.8886C29.1965 16.9652 29.7991 18.014 30.3235 19.0996C30.7765 20.0282 31.0558 21.056 31.102 22.0891C31.1487 22.6907 31.122 23.3201 31.0679 23.9201C30.9571 24.8692 30.6579 25.8251 30.1498 26.6377C29.7582 27.2833 29.1555 27.7616 28.544 28.1868C28.4773 28.2308 28.417 28.3385 28.3304 28.3253C28.228 28.3211 28.1776 28.2161 28.1981 28.1243C28.7681 27.0219 28.8863 25.6886 28.5429 24.4986C28.523 24.4476 28.5188 24.3862 28.4679 24.3574C28.2238 25.6854 27.6758 26.9763 26.8201 28.0261C26.1272 28.8644 25.2406 29.5432 24.1839 29.8429C23.3855 30.0797 22.492 30.0581 21.7146 29.7553C21.6322 29.6618 21.4815 29.581 21.5424 29.4356C21.9723 28.9763 22.2973 28.3789 22.4259 27.7621C22.3319 27.7883 22.2495 27.8492 22.1592 27.8865C21.6763 28.1022 21.1424 28.2099 20.6138 28.1941C20.143 28.1983 19.6007 28.0849 19.2317 27.7752C19.1409 27.6902 19.0269 27.6056 19.0605 27.465C19.4301 26.982 19.6521 26.3705 19.734 25.771C19.7692 25.7227 19.8317 25.6944 19.8789 25.6587C21.2469 24.7028 22.3634 23.4429 23.2096 22.0083C23.2653 21.8881 23.3923 21.8618 23.5083 21.9075C24.2269 22.1274 25.0128 22.0366 25.6768 21.6923C26.4385 21.3017 27.0254 20.6109 27.3099 19.8057C27.4952 19.3096 27.5356 18.781 27.481 18.2571C27.3865 17.5243 27.0206 16.8329 26.4395 16.3705C26.1298 16.0734 25.7025 15.8917 25.2857 15.8088C24.7078 15.6802 24.0826 15.7878 23.5571 16.0524C23.5571 16.6167 23.46 17.1946 23.3109 17.7385C22.9807 18.8739 22.3729 20.0104 21.4742 20.7962C21.4059 20.855 21.3325 20.9353 21.2448 20.961C21.1744 20.9684 21.0605 20.9138 21.0611 20.8314C21.0422 20.7311 21.1493 20.655 21.2002 20.5778C21.4369 20.2482 21.5986 19.8492 21.722 19.4644C21.9519 18.7248 22.0395 17.9269 22.049 17.1547C22.0322 15.7868 21.7818 14.4062 21.2091 13.1574C21.1729 13.0644 21.1146 12.9579 21.1561 12.8571C21.2584 12.5941 21.312 12.3159 21.3246 12.034C21.0962 12.1805 20.8548 12.3054 20.6175 12.4366C20.5041 12.497 20.3372 12.5469 20.238 12.4356C20.1755 12.2571 20.1844 12.0398 20.2007 11.8534C20.2164 11.5353 20.2243 11.2225 20.1996 10.9049C19.8385 11.098 19.501 11.2965 19.1172 11.4508C18.9891 11.4986 18.838 11.4455 18.7157 11.4015C18.1078 11.1553 17.6107 10.6781 17.1786 10.1973C16.9346 9.91379 16.7078 9.63557 16.5603 9.28754C16.4238 8.97363 16.3697 8.64922 16.3671 8.30749C15.6495 8.69069 14.7356 8.6298 13.9472 8.63557C13.1099 8.64922 12.2579 8.59515 11.4264 8.69332C11.3351 8.70329 11.1776 8.65237 11.1718 8.54266C11.1461 8.39358 11.2626 8.29699 11.3545 8.19988C10.6626 8.38885 9.98127 8.65762 9.30358 8.88597C9.11933 8.92744 8.9377 9.01615 8.76132 8.90329C8.57497 8.77206 8.62642 8.57783 8.63954 8.38256C8.48468 8.37836 8.32405 8.45185 8.17865 8.50014C7.46999 8.77363 6.75187 9.01877 6.02799 9.24922C5.52615 9.39988 5.02641 9.51431 4.49833 9.50119C4.24741 9.48807 3.99177 9.54633 3.76657 9.65657C2.95397 9.68754 2.04899 9.44082 1.44636 8.87389C1.08416 8.54004 0.835339 8.09069 0.769722 7.60093C0.737176 7.24502 0.747675 6.89017 0.869985 6.55053C1.16815 5.67494 1.87103 4.9962 2.67576 4.57048C2.76237 4.53006 2.87996 4.44502 2.97392 4.50119C3.06631 4.55526 3.07681 4.67704 3.02642 4.76261C2.26159 5.55631 2.17812 6.86445 2.72353 7.79988C2.95765 8.18151 3.29518 8.54476 3.74978 8.64292C3.88521 7.8529 4.3167 7.11851 4.82484 6.51011C5.54558 5.64555 6.46421 4.91904 7.41697 4.32586C9.24584 3.19988 11.3193 2.44765 13.4479 2.15683C14.6227 2.01248 15.7839 1.99725 16.9372 2.29647C17.8311 1.13636 19.1676 0.341085 20.6133 0.109588C22.2238 -0.173351 23.9666 0.298565 25.1734 1.41353Z" fill="black"/>
<path d="M21.2956 0.351402C22.7622 0.264787 24.2483 0.833291 25.2446 1.92148C25.8173 2.53775 26.2121 3.31886 26.3801 4.14248C26.4116 4.50731 26.4788 4.86689 26.4961 5.23329C26.5607 5.7409 26.5696 6.25376 26.6268 6.76137C26.6872 7.94668 26.7895 9.15088 26.9239 10.3304C27.1328 11.8559 27.3481 13.3288 27.8504 14.7934C28.1517 15.669 28.5879 16.4406 29.0179 17.2538C29.4268 18.037 29.8656 18.8128 30.2184 19.6228C30.8441 21.0601 30.9302 22.6979 30.7118 24.2343C30.5433 25.2049 30.1659 26.2018 29.5334 26.9677C29.294 27.228 29.0242 27.4842 28.7323 27.6847C28.9633 27.0385 29.0635 26.3435 29.032 25.659C29.0173 24.9918 28.8683 24.2989 28.5517 23.7078C28.4887 23.585 28.2835 23.6007 28.252 23.7404C28.0599 25.3199 27.4331 26.9063 26.3528 28.091C25.6242 28.8895 24.683 29.49 23.6011 29.6527C23.0478 29.7283 22.4362 29.6973 21.9118 29.4937C22.3444 28.9241 22.7397 28.1724 22.7355 27.4427C22.747 27.2973 22.5565 27.2695 22.4662 27.3509C22.1628 27.5734 21.8179 27.7094 21.4541 27.7992C20.8551 27.9341 20.21 27.9493 19.6457 27.6779C19.5822 27.6359 19.4467 27.5818 19.4231 27.512C19.7192 27.0333 19.9276 26.5047 20.0257 25.9498C20.1034 25.8469 20.242 25.7855 20.3397 25.6994C21.5937 24.7619 22.6368 23.5734 23.4336 22.227C23.6872 22.2448 23.9276 22.322 24.1838 22.3257C25.3139 22.3782 26.4158 21.7897 27.0756 20.8837C27.5187 20.2916 27.7675 19.5708 27.8116 18.8349C27.8441 17.8438 27.4788 16.8601 26.7166 16.2076C26.9024 15.901 26.9948 15.5624 27.0593 15.2128C27.2236 14.1803 27.0672 13.0748 26.8289 12.0637C26.5801 11.09 26.2242 10.1488 25.7271 9.27371C25.5391 8.48158 25.2861 7.70941 24.8982 6.99077C24.241 5.74458 23.2252 4.69733 21.9885 4.02017C21.9255 3.9829 21.8578 3.97607 21.7874 3.96295C21.2525 3.21019 20.3806 2.7367 19.4599 2.68421C19.1948 2.64012 18.9418 2.68001 18.6777 2.68631C18.5019 2.55508 18.3097 2.51728 18.095 2.50416C17.7795 2.47896 17.526 2.60075 17.2305 2.42752C18.1953 1.1934 19.7292 0.40547 21.2956 0.351402Z" fill="#562306"/>
<path d="M16.7291 2.56366C16.7863 2.58256 16.8493 2.57731 16.8813 2.634C16.7548 2.6676 16.6325 2.71117 16.5102 2.75789C15.1281 3.16891 13.8021 3.78466 12.5721 4.53479C12.1422 4.79883 11.727 5.09017 11.3391 5.413C11.2582 5.4781 11.2546 5.58781 11.3123 5.67022C11.3926 5.71432 11.4577 5.71484 11.5296 5.655C12.2771 5.0424 13.1123 4.54581 13.9727 4.10959C14.9973 3.59831 16.0882 3.15054 17.2089 2.90539C17.5438 2.85185 17.9186 2.77048 18.253 2.834C18.3721 2.85395 18.4777 2.92429 18.5942 2.95894C18.7527 3.02508 18.9197 2.97153 19.0918 2.97363C19.3191 2.97836 19.5517 2.98518 19.7742 3.0361C20.4325 3.14844 21.0372 3.51012 21.4525 4.03243C21.9826 4.69017 22.2372 5.52482 22.3627 6.34844C22.4126 6.74791 22.4588 7.14581 22.4446 7.54844C22.4467 7.66235 22.4493 7.84765 22.6084 7.83768C22.7212 7.84188 22.7585 7.75369 22.7574 7.65447C22.7648 6.54476 22.6005 5.45972 22.1092 4.45552C22.8514 4.89332 23.5018 5.49962 24.0204 6.18623C24.7884 7.20775 25.2472 8.39831 25.4792 9.6487C25.7286 10.9847 25.705 12.3973 25.5323 13.7421C25.5044 13.9138 25.464 14.1001 25.4745 14.2744C25.5454 14.4288 25.749 14.391 25.7653 14.223C25.8535 13.7563 25.905 13.2718 25.9317 12.7978C26.0157 11.9437 25.979 11.1127 25.8887 10.2629C25.9055 10.37 25.9637 10.4492 26.0031 10.5479C26.4635 11.6749 26.7664 12.8917 26.8147 14.1101C26.8273 14.7227 26.7821 15.4403 26.4813 15.9889C25.6336 15.3831 24.4913 15.2854 23.5443 15.7122C23.5139 15.6256 23.516 15.4886 23.3963 15.4807C23.306 15.4665 23.2168 15.5374 23.2246 15.6314C23.2383 15.9799 23.2483 16.3353 23.211 16.6828C23.0666 17.771 22.6593 18.8298 22.0257 19.7269L21.9769 19.7511C21.9832 19.6503 22.0168 19.5595 22.0472 19.4644C22.3065 18.5852 22.3763 17.6713 22.3496 16.7584C22.2897 15.4492 22.0115 14.1022 21.4383 12.9175C21.5627 12.6062 21.5916 12.2881 21.6362 11.9584C21.6451 11.8545 21.6645 11.7406 21.6414 11.6377C21.5763 11.5122 21.421 11.5427 21.338 11.6314C21.1695 11.7899 20.9721 11.9001 20.7674 12.0041C20.684 12.0435 20.5958 12.1154 20.5023 12.1169C20.5039 11.9238 20.5239 11.7322 20.5165 11.5379C20.5107 11.2309 20.5412 10.8896 20.4651 10.5904C20.3333 10.4755 20.201 10.5448 20.0861 10.6393C19.7601 10.8219 19.4267 10.9952 19.084 11.1448C18.9942 11.1847 18.9107 11.1568 18.8257 11.1217C18.3265 10.9033 17.8892 10.5122 17.5228 10.1154C17.2509 9.81143 16.9632 9.4823 16.8189 9.09594C16.6021 8.54004 16.6404 7.89384 16.9239 7.36839C16.9753 7.2802 16.948 7.14739 16.8351 7.13374C16.6908 7.10487 16.6262 7.29174 16.5695 7.39043C16.4708 7.6277 16.3616 7.96051 16.1323 8.10697C15.6273 8.31274 15.1149 8.33164 14.5774 8.32744C13.737 8.32534 12.8971 8.31957 12.0567 8.33007C11.9197 8.33164 11.7874 8.35631 11.6498 8.36786C11.7506 8.21458 11.9286 8.10277 11.812 7.90067C11.6435 7.79516 11.4761 7.86182 11.2955 7.89489C10.6042 8.07915 9.927 8.34529 9.24931 8.57678C9.14852 8.6067 9.03566 8.65185 8.93068 8.634C8.94117 8.4823 9.00522 8.27547 8.88291 8.15316C8.77267 8.03768 8.63251 8.05027 8.48816 8.0781C8.12385 8.17048 7.79472 8.32219 7.43829 8.44555C6.76165 8.68125 6.07976 8.93269 5.38212 9.10014C4.98474 9.19148 4.58789 9.20146 4.18264 9.20881C3.99052 9.20828 3.85246 9.34319 3.65876 9.33059C3.19629 9.36734 2.7186 9.25657 2.29761 9.0676C1.78684 8.83873 1.35482 8.44187 1.1627 7.90697C0.989469 7.43977 1.04144 6.94581 1.22464 6.49069C1.46243 5.91064 1.88291 5.47495 2.38107 5.10907C2.29498 5.31537 2.20574 5.51799 2.1543 5.73689C1.91493 6.73269 2.17215 7.87652 2.94642 8.57783C3.21939 8.76891 3.47136 8.94109 3.81781 8.95264C3.93645 8.94686 4.01519 8.88282 4.03776 8.76471C4.21414 7.68492 4.98317 6.70697 5.75797 5.97153C7.13382 4.69122 8.87451 3.76209 10.6409 3.14529C11.3286 2.91064 12.0288 2.72324 12.7412 2.58308C14.0351 2.34476 15.4399 2.25972 16.7291 2.56366Z" fill="#562306"/>
</svg>
