<svg width="31" height="31" viewBox="0 0 31 31" fill="none" xmlns="http://www.w3.org/2000/svg">
<path d="M16.7872 6.65367C18.7725 6.91089 20.6828 7.68464 22.2886 8.87887C22.6114 9.13294 22.9437 9.36863 23.2345 9.66207C24.4823 10.8159 25.4775 12.2353 26.1285 13.8064C26.6193 14.9776 26.9012 16.2232 27.0019 17.4883C27.3494 17.5308 27.687 17.6007 28.0056 17.7508C28.8214 18.1146 29.4271 18.85 29.6739 19.7041C29.8119 20.2059 29.8607 20.7408 29.7641 21.2552C29.6088 22.24 29.0439 23.1518 28.2224 23.7182C27.6481 24.1198 26.9368 24.3497 26.235 24.3314C25.9657 24.3287 25.708 24.2474 25.4408 24.2374C25.3437 24.3513 25.2712 24.4915 25.1909 24.618C24.2114 26.1728 22.8513 27.4794 21.2728 28.4185C19.7977 29.2967 18.1285 29.8442 16.4193 30.0101C15.8376 30.0468 15.2712 30.1177 14.688 30.0489C11.9746 29.9282 9.33003 28.8185 7.33108 26.9818C5.80719 25.5881 4.66231 23.7886 4.04814 21.8169C3.67596 20.6174 3.49066 19.3613 3.51953 18.1051C3.54683 15.9875 4.17727 13.8752 5.30116 12.081C6.30378 10.4636 7.71113 9.11089 9.35365 8.15288C10.909 7.2458 12.6791 6.69986 14.4765 6.5849C15.246 6.50774 16.0219 6.56548 16.7872 6.65367Z" fill="black"/>
<path d="M15.0551 6.87448C17.5994 6.80152 20.1637 7.64614 22.1842 9.19049C22.528 9.40362 22.7994 9.68866 23.0955 9.959C24.3727 11.1469 25.3632 12.6335 25.979 14.2645C26.369 15.2939 26.6015 16.3747 26.6908 17.4713C26.2241 17.5102 25.7805 17.5942 25.3585 17.8062C25.2435 17.8603 25.2593 18.0661 25.3942 18.0808C25.5175 18.0929 25.6556 18.0015 25.7742 17.9653C26.5417 17.6834 27.4183 17.7369 28.1249 18.1585C28.7385 18.5144 29.1795 19.1118 29.379 19.7889C29.5154 20.222 29.5196 20.7028 29.4713 21.1511C29.3401 22.0619 28.8231 22.9217 28.0682 23.4509C27.2435 24.0456 26.117 24.2194 25.1847 23.7763C25.0183 23.7013 24.8729 23.5884 24.7081 23.5112C24.5532 23.454 24.4519 23.6577 24.5664 23.7606C24.7328 23.9055 24.9517 23.9978 25.1438 24.1049C24.0866 25.8976 22.548 27.3963 20.7128 28.3816C19.1275 29.2377 17.3301 29.7217 15.5275 29.7543C14.0771 29.7921 12.6231 29.5422 11.2645 29.0341C9.67292 28.444 8.2283 27.4892 7.04563 26.2729C5.8556 25.0461 4.95009 23.5495 4.41046 21.928C3.62515 19.5847 3.62778 16.9931 4.42463 14.653C5.00468 12.9175 6.01413 11.3349 7.33119 10.0656C8.88867 8.55742 10.8824 7.51753 13.0073 7.09076C13.6792 6.95847 14.369 6.86818 15.0551 6.87448Z" fill="#ECAD80"/>
<path d="M27.7598 19.2276C27.8978 19.2224 27.9404 19.4271 27.8312 19.4891C27.6375 19.5851 27.4207 19.6345 27.2202 19.7174C26.9146 19.8245 26.628 19.9673 26.3446 20.1227C26.5698 20.2455 26.8097 20.3715 27.0118 20.53C27.1472 20.6397 27.2663 20.7583 27.2915 20.9394C27.2779 21.1279 27.1482 21.2833 27.0055 21.3956C26.6978 21.6402 26.2747 21.7725 25.9141 21.9342C25.8223 21.9667 25.6816 22.0387 25.6207 21.9206C25.5671 21.8292 25.6175 21.7573 25.7031 21.7174C26.0522 21.5442 26.4831 21.4224 26.7944 21.1841C26.8663 21.1242 26.9724 21.0402 26.9839 20.9415C26.7703 20.646 26.332 20.4906 26.027 20.3069C25.9041 20.2166 25.9068 20.0843 26.0186 19.9851C26.4002 19.6891 26.9099 19.499 27.3608 19.3353C27.4879 19.2917 27.6249 19.2329 27.7598 19.2276Z" fill="black"/>
<path d="M16.892 15.9048C17.7534 15.9316 18.5891 16.2912 19.198 16.9012C19.5004 17.1957 19.7203 17.5474 19.9119 17.9211C20.325 17.6539 20.7413 17.392 21.1592 17.1321C21.2248 17.1894 21.2862 17.2503 21.346 17.3138C21.1796 17.4985 20.9749 17.5967 20.7707 17.73C20.5203 17.8891 20.2694 18.0466 20.02 18.2067C20.1864 18.7316 20.2578 19.277 20.167 19.824C20.0594 20.6072 19.6636 21.339 19.0778 21.8676C18.4699 22.4219 17.6626 22.7453 16.8389 22.7516C16.1576 22.7694 15.4704 22.5689 14.9019 22.1936C14.2489 21.7705 13.7571 21.1169 13.5161 20.3783C13.2762 19.6172 13.303 18.7647 13.6101 18.0261C13.8941 17.3237 14.4269 16.7232 15.0862 16.351C15.6274 16.034 16.2678 15.8865 16.892 15.9048Z" fill="black"/>
<path d="M16.3812 16.228C17.1503 16.1351 17.9177 16.3131 18.5545 16.7551C19.2085 17.2002 19.6763 17.9031 19.8385 18.6774C19.976 19.3262 19.9036 20.017 19.6248 20.6207C19.3036 21.3367 18.6973 21.9278 17.9671 22.2181C17.4306 22.4401 16.8348 22.5147 16.2621 22.4107C15.4007 22.2716 14.6096 21.7482 14.144 21.0102C13.85 20.5498 13.6852 20.016 13.6521 19.4716C13.6201 18.7126 13.8742 17.9414 14.356 17.353C14.8532 16.7351 15.5959 16.3262 16.3812 16.228Z" fill="white"/>
<path d="M9.28292 17.4722C9.84722 17.7888 10.2929 18.3006 10.5359 18.9001C10.7191 19.3468 10.7743 19.8334 10.7254 20.3121C10.6315 21.2114 10.0871 22.0371 9.30286 22.4843C8.43725 22.9904 7.32596 22.9972 6.45247 22.5058C5.69552 22.0864 5.15326 21.3221 5.01415 20.467C4.91914 19.9998 4.98055 19.5394 5.11336 19.0869C4.80785 18.8964 4.47662 18.7394 4.18213 18.5331C4.07977 18.4754 4.10654 18.3169 4.21782 18.2896C4.30444 18.2644 4.38475 18.3205 4.4593 18.3568C4.71284 18.5053 4.96533 18.6539 5.2194 18.8014C5.56481 18.0596 6.1984 17.4785 6.98265 17.2334C7.73961 16.9888 8.5921 17.0785 9.28292 17.4722Z" fill="black"/>
<path d="M7.40486 17.4367C8.19383 17.2907 9.02901 17.539 9.61536 18.085C10.1434 18.57 10.45 19.2776 10.4516 19.9941C10.4427 20.4167 10.335 20.843 10.1329 21.2151C9.76864 21.8881 9.10197 22.381 8.34922 22.5222C7.92559 22.6125 7.49725 22.5794 7.08517 22.4508C6.08255 22.1422 5.33662 21.2025 5.28045 20.1521C5.229 19.4808 5.46313 18.802 5.9025 18.2933C6.28622 17.8456 6.8248 17.5416 7.40486 17.4367Z" fill="white"/>
<path d="M15.2266 18.1145C15.6135 18.0672 16.0251 18.2079 16.2896 18.4971C16.4901 18.716 16.6193 19.011 16.6261 19.3092C16.6408 19.6903 16.467 20.0809 16.1678 20.3192C15.8025 20.6252 15.2628 20.6824 14.8366 20.4746C14.3831 20.2593 14.0896 19.7601 14.1342 19.2578C14.171 18.673 14.6455 18.1811 15.2266 18.1145ZM6.36941 18.8835C6.96836 18.6803 7.6471 19.041 7.81508 19.6494C8.01298 20.263 7.60405 20.9544 6.97361 21.0835C6.4156 21.2226 5.80878 20.8977 5.62663 20.3517C5.42085 19.7675 5.77098 19.0609 6.36941 18.8835Z" fill="black"/>
<path d="M19.7552 14.7191C19.8387 14.7722 19.8119 14.8693 19.8203 14.9543C19.8171 15.5496 19.8177 16.1459 19.814 16.7412C19.8308 16.8855 19.6869 16.9627 19.5715 17.0036C17.4722 17.7249 15.3657 18.4341 13.2696 19.1622C13.1368 19.1727 13.1205 19.0703 13.0854 18.9701C12.9998 18.6551 12.9121 18.3412 12.8224 18.0278C12.8733 18.3296 12.8738 18.6399 12.8938 18.9449C12.8927 19.0204 12.9174 19.1517 12.8418 19.1994C12.7394 19.2729 12.6282 19.2063 12.6003 19.0929C12.4093 18.4246 12.2318 17.7501 12.0408 17.0813C12.0203 16.9853 12.0066 16.8761 12.1121 16.8252C12.2229 16.7994 12.2911 16.8498 12.3221 16.9533C12.3888 17.1921 12.456 17.4315 12.5153 17.6724C12.477 17.3973 12.4659 17.1218 12.4534 16.8446C12.4528 16.7779 12.446 16.6488 12.5405 16.6456C12.6177 16.632 12.6969 16.6257 12.773 16.6078C14.9373 15.9916 17.0969 15.3774 19.2612 14.759C19.4329 14.7134 19.5772 14.6498 19.7552 14.7191ZM4.55624 16.4178C5.27225 16.4908 5.99246 16.4934 6.70847 16.5533C7.81293 16.6084 8.91897 16.6934 10.0229 16.7328C10.4318 16.7737 10.8423 16.7916 11.2533 16.821C11.3988 16.9359 11.31 17.2451 11.3536 17.4157C11.383 17.2598 11.3631 17.053 11.4544 16.9191C11.5673 16.8246 11.7211 16.9102 11.7043 17.0535C11.5804 17.79 11.4539 18.5307 11.3358 19.2677C11.2938 19.4215 11.1006 19.4021 11.0581 19.2598C11.0439 19.0015 11.0471 18.7407 11.0434 18.4813C10.9893 18.7065 10.9662 18.9375 10.9137 19.1627C10.8911 19.2488 10.8523 19.3118 10.751 19.2887C8.67855 18.927 6.58301 18.5417 4.51109 18.1711C4.41241 18.1606 4.36254 18.0945 4.34889 18C4.27277 17.5811 4.21765 17.158 4.13262 16.7407C4.12054 16.6504 4.09377 16.5758 4.16201 16.5002C4.2733 16.38 4.40978 16.412 4.55624 16.4178Z" fill="black"/>
<path d="M13.5438 23.0909C14.3559 23.1886 15.1853 23.3807 15.8767 23.8363C16.2473 24.0794 16.5853 24.4321 16.6835 24.8768C16.8074 25.3282 16.4935 25.8337 16.0698 25.9986C15.6908 26.1576 15.3339 26.093 14.9491 26.0075C14.6362 25.9576 14.3218 25.9235 14.0047 25.9109C12.8205 25.861 11.6352 25.9555 10.4777 26.2127C10.1759 26.2657 9.89398 26.386 9.59582 26.4075C9.25566 26.4148 8.9092 26.2468 8.71393 25.966C8.55225 25.7461 8.48191 25.4605 8.48873 25.1907C8.52075 24.7833 8.77167 24.4091 9.07508 24.1476C9.58847 23.6957 10.2782 23.43 10.9339 23.2652C11.7885 23.0647 12.6698 23.0138 13.5438 23.0909Z" fill="black"/>
<path d="M14.108 23.4905C13.5694 23.8837 12.8854 24.0942 12.2287 24.1693C11.487 24.2312 10.7495 24.1782 10.0508 23.9063C10.5159 23.6575 11.0713 23.5415 11.5873 23.448C12.4303 23.3346 13.2707 23.322 14.108 23.4905Z" fill="white"/>
<path d="M14.5176 23.5801C15.0987 23.7496 15.7018 23.9853 16.1149 24.4473C16.3344 24.6971 16.4787 25.0368 16.3249 25.3601C16.1669 25.6835 15.8178 25.8095 15.4745 25.779C14.2971 25.5444 13.0456 25.5491 11.8546 25.6714C11.2115 25.7554 10.5874 25.8494 9.96271 26.0299C9.66507 26.1024 9.36901 26.1444 9.11389 25.9355C8.76796 25.6599 8.72491 25.1691 8.93069 24.7943C9.11021 24.4877 9.39735 24.2557 9.69919 24.0772C9.91336 24.2111 10.1428 24.2709 10.3837 24.3381C11.5323 24.6362 12.8435 24.546 13.9013 23.9859C14.1249 23.8751 14.3107 23.716 14.5176 23.5801Z" fill="#8F2E45"/>
<path d="M24.8184 0.785482C25.5134 0.79808 26.1995 1.04795 26.7355 1.49204C26.799 1.54349 26.7832 1.6448 26.7386 1.70517C26.6504 1.75923 26.5449 1.72669 26.4452 1.72354C26.1486 1.68732 25.8389 1.74979 25.5538 1.83063C24.8762 2.0406 24.3391 2.48574 23.9061 3.03693C24.2536 2.92931 24.6111 2.86422 24.9759 2.87472C25.862 2.90464 26.6998 3.19651 27.4541 3.65267C28.4158 4.23063 29.2515 5.08942 29.7339 6.10779C30.0105 6.71934 30.1785 7.45687 30.0037 8.11881C29.8882 8.61015 29.5796 9.04532 29.1544 9.31776C28.8084 9.54769 28.4216 9.64165 28.0158 9.70202C28.1901 9.99125 28.3832 10.2584 28.526 10.5661C28.9481 11.4448 29.1271 12.4689 29.2279 13.4322C29.2494 13.8165 29.2788 14.2028 29.2867 14.5876C29.2578 15.1209 29.2688 15.6375 29.1848 16.1629C29.126 16.6899 29.0289 17.2254 28.852 17.7262C28.7785 17.9141 28.6688 18.155 28.4867 18.26C28.3979 18.3146 28.3129 18.2448 28.2336 18.207C27.7979 17.9445 27.2835 17.7881 26.7727 17.796C26.7386 18.2658 26.6468 18.7246 26.4447 19.1524C26.0888 19.9293 25.4184 20.5771 24.5827 20.8018C24.1318 20.9309 23.6972 20.9146 23.2504 20.7818C23.1433 20.7498 23.1318 20.6086 23.2168 20.5451C23.3575 20.4217 23.5098 20.3235 23.6247 20.1724C24.0651 19.6233 24.3076 18.9025 24.3906 18.2102C24.4347 17.6878 24.4305 17.0884 24.1444 16.628C24.0573 16.4779 23.9134 16.4159 23.799 16.2957C23.7486 15.9193 23.6809 15.5545 23.5071 15.2117C23.4562 15.0884 23.3622 14.9671 23.4363 14.8327C23.5202 14.6616 23.6279 14.501 23.7244 14.3361C23.5428 14.3556 23.379 14.364 23.2368 14.2301C22.9664 13.9724 22.7911 13.5976 22.6966 13.2406C22.6352 13.0091 22.526 12.7787 22.4993 12.5409C22.4951 12.4621 22.5502 12.4186 22.6205 12.4028C22.8457 12.3424 23.0216 12.218 23.2184 12.0947C23.4184 11.964 23.5475 11.7781 23.6714 11.5781C23.2489 11.6217 22.8105 11.6254 22.3922 11.5472C21.8226 11.4332 21.346 11.1687 20.8352 10.9083C20.589 10.7713 20.3565 10.6553 20.2126 10.3997C19.6468 10.2605 19.0814 10.123 18.5213 9.96133C17.5974 9.70674 16.7035 9.40648 15.737 9.36658C14.8914 9.32459 14.0305 9.43902 13.2063 9.62695C12.958 9.67944 12.746 9.79336 12.5412 9.93876L12.4011 9.86632C12.4226 9.50044 12.6405 9.13824 12.8037 8.81645C12.4011 9.12144 12.0221 9.48102 11.7234 9.88942C11.6489 9.98653 11.6021 10.1225 11.5134 10.2039C11.2762 10.2758 10.9974 10.2385 10.7502 10.2485C10.3964 10.2574 10.0483 10.2154 9.69663 10.1939C9.37169 10.2915 9.06723 10.4721 8.74807 10.5907C8.04676 10.8553 7.32707 11.0102 6.57852 10.8653C6.38534 11.0695 6.20896 11.2826 6.04781 11.513C5.63783 12.0999 5.26985 12.7146 4.95017 13.3556C4.63153 13.9613 4.43363 14.5955 4.22051 15.2432C4.14859 15.4978 4.11867 15.7613 4.04676 16.0165C3.98744 16.2238 3.97904 16.438 3.94019 16.6485C3.82366 16.7729 3.59846 16.8039 3.45043 16.8941C3.02104 17.1335 2.65673 17.5172 2.36539 17.9094C1.99794 18.4144 1.69085 19.0023 1.56434 19.6175C1.52077 19.8159 1.53809 20.0102 1.52077 20.2096C1.45148 20.3235 1.30555 20.3372 1.24256 20.2102C1.04466 19.7734 0.979041 19.2632 0.978516 18.7871C1.01999 16.8731 2.3171 15.0464 4.0751 14.3125C3.86723 13.786 3.79951 13.2075 3.78009 12.6453C3.75542 12.0873 3.86408 11.5598 3.97432 11.017C4.1276 10.3477 4.36802 9.70307 4.76277 9.13719C4.42576 9.0784 4.115 8.95923 3.8709 8.71094C3.46566 8.31251 3.336 7.78916 3.30293 7.2385C3.29768 6.44217 3.55647 5.66422 4.00844 5.0112C4.39531 4.45372 4.915 4.00228 5.56539 3.78443C5.79006 3.21383 6.16434 2.72091 6.68613 2.39283C6.83206 2.32511 6.92392 2.36816 6.99321 2.50674C6.90975 2.73981 6.86828 2.95346 6.85516 3.20175C7.17327 2.97498 7.53442 2.86212 7.91342 2.78811C8.4688 2.66685 9.0688 2.69677 9.61159 2.86265C10.0415 3.01173 10.4809 3.32774 10.6599 3.75976C10.8552 4.16816 10.8268 4.68154 10.6741 5.09939C11.5444 4.83798 12.4641 4.66947 13.3748 4.69572C13.9108 4.69624 14.4525 4.76133 14.9685 4.90832C15.3313 5.00595 15.6793 5.20648 15.9995 5.4007C16.1586 5.49362 16.272 5.6175 16.3712 5.77026C17.367 5.44165 18.4168 5.29152 19.4646 5.34454C20.0063 5.37551 20.5475 5.48837 21.0693 5.63483C20.9796 5.41488 20.9061 5.19021 20.8678 4.95504C20.7481 4.34296 20.8641 3.68102 21.1134 3.11462C21.7381 1.69782 23.2651 0.71829 24.8184 0.785482Z" fill="black"/>
<path d="M26.0994 1.42042C25.2574 1.47659 24.4747 1.94063 23.9162 2.5569C22.9865 3.58158 22.564 5.04772 22.9131 6.39995C22.4569 6.15585 21.9808 5.93748 21.49 5.77423C21.2511 5.37738 21.1199 4.92068 21.1309 4.45612C21.1199 3.67554 21.4553 2.91911 21.9676 2.34116C22.5913 1.63302 23.5047 1.15375 24.4506 1.09234C25.0196 1.04247 25.5918 1.159 26.0994 1.42042ZM6.59647 2.82672C6.49988 3.26609 6.55657 3.69129 6.59962 4.13118C6.63584 4.56898 6.76025 5.01097 6.89411 5.42777C7.03689 5.89864 7.33873 6.34116 7.60907 6.75061C7.54135 6.83512 7.48203 6.96793 7.37862 7.01097C7.07206 7.1527 6.77022 7.30284 6.48413 7.48446C6.25999 7.3779 6.08466 7.2073 5.94083 7.00782C5.67889 6.5905 5.53715 6.10389 5.53085 5.61097C5.50356 4.86557 5.69778 4.09654 6.06839 3.44877C6.20329 3.20415 6.39647 3.01727 6.59647 2.82672Z" fill="#AC6511"/>
<path d="M8.75594 3.02706C9.19688 3.03756 9.62208 3.12575 9.98218 3.39241C10.2305 3.55934 10.3948 3.80081 10.4714 4.08848C10.5801 4.47483 10.4987 4.86748 10.3019 5.20921C9.64675 5.43178 8.94334 5.6764 8.35699 6.04701C8.14491 6.17509 7.96171 6.33677 7.79111 6.51525C7.54124 6.14832 7.29189 5.75042 7.16591 5.32155C6.99111 4.76617 6.8688 4.20711 6.8688 3.62181C7.01263 3.4911 7.12969 3.35777 7.31447 3.28218C7.76906 3.0911 8.26355 3.00029 8.75594 3.02706ZM27.6813 4.16669C28.506 4.75619 29.2199 5.57194 29.5774 6.52942C29.7412 6.95462 29.8021 7.41604 29.7438 7.86853C29.6803 8.34832 29.4068 8.79346 28.9974 9.05488C28.6525 9.27745 28.2131 9.40501 27.8026 9.39504C27.6703 9.28323 27.5648 9.14464 27.4225 9.04176C26.8724 8.61761 26.2157 8.31105 25.6168 7.95672C24.8409 7.52627 24.0897 7.05121 23.3144 6.61971C22.905 5.63756 23.0924 4.44281 23.5905 3.52627C23.9328 3.3268 24.3065 3.20606 24.7044 3.19084C25.7517 3.11997 26.8409 3.56617 27.6813 4.16669ZM5.42832 4.15829C5.16376 5.04333 5.11284 6.08953 5.55063 6.92837C5.69027 7.23913 5.92386 7.4785 6.19473 7.67903C5.72334 7.99661 5.32019 8.38926 4.97216 8.83756C4.74171 8.81656 4.52596 8.80186 4.32439 8.67745C3.92491 8.44806 3.72806 8.03126 3.64407 7.59399C3.53489 6.8764 3.70602 6.15357 4.04932 5.52155C4.33226 5.00501 4.75588 4.51787 5.28029 4.23756C5.32964 4.21079 5.37846 4.18454 5.42832 4.15829ZM14.0031 5.03546C14.3238 5.05435 14.6398 5.11577 14.9474 5.20659C15.243 5.289 15.5296 5.45278 15.7968 5.60344C15.9207 5.67115 16.0204 5.76459 16.1165 5.86643C15.7191 6.04071 15.3301 6.22706 14.9684 6.46853C14.2472 6.94674 13.6466 7.56617 13.1516 8.27378C13.0619 8.30107 12.9758 8.32889 12.8997 8.38559C12.2949 8.79871 11.7249 9.33257 11.3464 9.96407C10.8524 9.99136 10.3516 9.97404 9.86082 9.90895C9.34848 9.85488 8.7931 9.74727 8.34743 9.4764C8.00728 9.27588 7.73903 8.94727 7.54218 8.60921C7.46817 8.4953 7.45452 8.30317 7.33903 8.22811C7.21095 8.18664 7.12486 8.31525 7.15268 8.43283C7.21567 8.73677 7.43877 9.02023 7.63195 9.25593C8.02565 9.7268 8.58628 9.98874 9.17998 10.1037C8.56843 10.3725 7.96056 10.5877 7.28654 10.625C6.86869 10.6376 6.45557 10.5614 6.12854 10.2859C5.93326 10.1467 5.82145 9.95094 5.66239 9.77876C5.52749 9.84543 5.47499 9.90685 5.52696 10.0612C5.67394 10.3541 5.99783 10.5772 6.27184 10.7441C5.96895 11.0916 5.70019 11.4706 5.4498 11.858C5.01305 12.5562 4.60465 13.2958 4.30019 14.0617C4.09599 13.3977 4.05452 12.7042 4.10649 12.0145C4.20885 11.2565 4.36056 10.5331 4.69704 9.84071C4.97581 9.30622 5.33781 8.81948 5.76948 8.39871C6.19678 8.00134 6.67552 7.66853 7.19625 7.40501C7.22827 7.48638 7.24297 7.54044 7.33221 7.57036C7.48234 7.55724 7.51961 7.44228 7.59153 7.3331C7.80675 6.95672 8.05084 6.61551 8.41515 6.37037C8.83562 6.0848 9.31961 5.8827 9.7952 5.7079C11.1102 5.22128 12.5957 4.85435 14.0031 5.03546Z" fill="#AC6511"/>
<path d="M18.1528 5.68799C18.715 5.60557 19.2672 5.63602 19.832 5.65754C21.19 5.84547 22.3716 6.41187 23.5423 7.09586C24.4226 7.61975 25.3071 8.13943 26.2037 8.63392C26.5737 8.84337 26.9318 9.03707 27.2661 9.30426C27.5144 9.50269 27.7003 9.80085 27.8735 10.0633C28.4719 10.8701 28.7155 11.9295 28.863 12.9058C28.9848 13.8754 29.0289 14.8465 28.9192 15.8197C28.885 16.2491 28.8331 16.6864 28.7339 17.1058C28.663 17.4197 28.5884 17.7184 28.4031 17.9872C27.9171 17.6791 27.337 17.4985 26.7596 17.5064C26.726 16.6161 26.3123 15.7174 25.5758 15.1951C25.4929 15.1253 25.3444 15.1179 25.3129 15.2413C25.2756 15.3809 25.3926 15.4224 25.4777 15.5022C25.9281 15.8455 26.2289 16.3662 26.3706 16.909C26.6903 18.1158 26.2136 19.5295 25.1549 20.2197C24.7087 20.5163 24.2 20.6182 23.6693 20.5746C24.2703 19.9594 24.5874 19.1043 24.6871 18.2617C24.7402 17.8948 24.7328 17.5221 24.6583 17.1583C24.5848 16.7447 24.4142 16.361 24.0567 16.1169C24.0026 15.7673 23.9265 15.4276 23.7748 15.1058C23.748 15.0271 23.6913 14.9583 23.7433 14.878C23.864 14.6607 24.0331 14.4339 24.1071 14.1951C24.1328 14.0959 24.0945 13.9657 23.9795 13.9484C23.8231 13.9216 23.6651 14.0665 23.5144 14.0502C23.3947 13.9987 23.3076 13.857 23.2394 13.751C23.0173 13.4092 22.9785 13.0528 22.8283 12.6628C23.1013 12.4964 23.4341 12.3421 23.6436 12.099C23.8026 11.9237 23.9039 11.7226 24.0068 11.5121C24.6383 11.3814 25.1884 11.035 25.5911 10.5337C25.6598 10.4444 25.6278 10.2964 25.5003 10.2953C25.401 10.2785 25.3454 10.3741 25.2814 10.4318C25.0651 10.6644 24.8325 10.8686 24.5433 11.0061C23.9491 11.3001 23.2635 11.351 22.6126 11.2796C21.9916 11.194 21.4898 10.9195 20.9391 10.6444C20.842 10.5935 20.7496 10.5358 20.6567 10.477C21.0084 10.5478 21.3638 10.5846 21.7207 10.6129C22.3045 10.6644 22.9013 10.6066 23.4835 10.5589C23.6352 10.54 23.6278 10.4476 23.6388 10.32C23.5234 10.288 23.4152 10.2623 23.294 10.277C22.6976 10.3205 22.1055 10.3573 21.5087 10.2948C20.2961 10.1751 19.053 9.79245 17.8787 9.46594C16.9501 9.19717 16.0278 9.004 15.0546 9.06384C14.3202 9.10898 13.5858 9.23864 12.8672 9.3935C12.8835 9.29954 12.906 9.21292 12.9559 9.12998C13.4719 8.23602 14.1276 7.44179 14.968 6.83445C15.9113 6.16778 17.01 5.81187 18.1528 5.68799ZM4.13328 14.6203C4.04351 14.909 3.92068 15.1767 3.87186 15.4785C3.81622 15.814 3.68761 16.1216 3.67448 16.4654C3.32803 16.5919 3.01622 16.7793 2.74745 17.0318C2.06976 17.6596 1.55585 18.4854 1.30703 19.3751C1.28236 19.0911 1.26976 18.8092 1.29128 18.5242C1.45454 16.8502 2.58629 15.2848 4.13328 14.6203Z" fill="#AC6511"/>
<path d="M25.6838 23.9882C25.9148 24.0307 26.1589 24.016 26.393 24.0291C26.7274 24.0444 27.0255 23.9577 27.3437 23.8716C27.4355 23.8454 27.5053 23.8391 27.5909 23.8884C27.8077 24.0087 27.9757 24.226 28.0864 24.4438C28.2864 24.8459 28.2948 25.2905 28.2413 25.7278C28.1038 26.5362 27.6098 27.3247 26.887 27.7315C26.7715 27.7966 26.678 27.8239 26.5751 27.7184C26.5531 27.5824 26.6812 27.448 26.7164 27.3168C26.7741 27.0921 26.7662 26.8459 26.7274 26.6186C26.583 25.9315 26.1442 25.3063 25.5563 24.9247C25.3169 24.7577 25.0576 24.7766 24.8975 24.5079C25.0303 24.3136 25.1384 24.1031 25.2717 23.91C25.3961 23.848 25.5557 23.9646 25.6838 23.9882Z" fill="black"/>
<path d="M27.44 24.1426C27.8883 24.4434 28.0279 25.0539 27.9602 25.5599C27.8762 26.2292 27.5445 26.8292 27.0405 27.2738C27.1282 26.7226 26.9633 26.162 26.6867 25.6875C26.3654 25.1415 25.8715 24.6712 25.2715 24.4486C25.3161 24.373 25.3612 24.2969 25.4059 24.2213C25.7528 24.3431 26.0872 24.2969 26.4458 24.3137C26.7996 24.3258 27.1019 24.2108 27.44 24.1426Z" fill="#AC6511"/>
</svg>
