<svg width="40" height="35" viewBox="0 0 40 35" fill="none" xmlns="http://www.w3.org/2000/svg">
<path d="M20.7872 3.65269C22.7725 3.90991 24.6828 4.68366 26.2886 5.87789C26.6114 6.13196 26.9437 6.36765 27.2345 6.66109C28.4823 7.8149 29.4775 9.23432 30.1285 10.8054C30.6193 11.9766 30.9012 13.2222 31.0019 14.4873C31.3494 14.5299 31.687 14.5997 32.0056 14.7498C32.8214 15.1136 33.4271 15.849 33.6739 16.7031C33.8119 17.2049 33.8607 17.7398 33.7641 18.2543C33.6088 19.239 33.0439 20.1509 32.2224 20.7173C31.6481 21.1188 30.9368 21.3488 30.235 21.3304C29.9657 21.3278 29.708 21.2464 29.4408 21.2364C29.3437 21.3503 29.2712 21.4905 29.1909 21.617C28.2114 23.1719 26.8513 24.4784 25.2728 25.4175C23.7977 26.2957 22.1285 26.8432 20.4193 27.0091C19.8376 27.0459 19.2712 27.1167 18.688 27.048C15.9746 26.9272 13.33 25.8175 11.3311 23.9808C9.80719 22.5871 8.66231 20.7876 8.04814 18.8159C7.67596 17.6165 7.49066 16.3603 7.51953 15.1041C7.54683 12.9866 8.17727 10.8742 9.30116 9.07999C10.3038 7.46267 11.7111 6.10991 13.3536 5.15191C14.909 4.24482 16.6791 3.69889 18.4765 3.58393C19.246 3.50676 20.0219 3.5645 20.7872 3.65269Z" fill="black"/>
<path d="M19.0551 3.87448C21.5994 3.80152 24.1637 4.64614 26.1842 6.19049C26.528 6.40362 26.7994 6.68866 27.0955 6.959C28.3727 8.14692 29.3632 9.63354 29.979 11.2645C30.369 12.2939 30.6015 13.3747 30.6908 14.4713C30.2241 14.5102 29.7805 14.5942 29.3585 14.8062C29.2435 14.8603 29.2593 15.0661 29.3942 15.0808C29.5175 15.0929 29.6556 15.0015 29.7742 14.9653C30.5417 14.6834 31.4183 14.7369 32.1249 15.1585C32.7385 15.5144 33.1795 16.1118 33.379 16.7889C33.5154 17.222 33.5196 17.7028 33.4713 18.1511C33.3401 19.0619 32.8231 19.9217 32.0682 20.4509C31.2435 21.0456 30.117 21.2194 29.1847 20.7763C29.0183 20.7013 28.8729 20.5884 28.7081 20.5112C28.5532 20.454 28.4519 20.6577 28.5664 20.7606C28.7328 20.9055 28.9517 20.9978 29.1438 21.1049C28.0866 22.8976 26.548 24.3963 24.7128 25.3816C23.1275 26.2377 21.3301 26.7217 19.5275 26.7543C18.0771 26.7921 16.6231 26.5422 15.2645 26.0341C13.6729 25.444 12.2283 24.4892 11.0456 23.2729C9.8556 22.0461 8.95009 20.5495 8.41046 18.928C7.62515 16.5847 7.62778 13.9931 8.42463 11.653C9.00468 9.91753 10.0141 8.33485 11.3312 7.06556C12.8887 5.55742 14.8824 4.51753 17.0073 4.09076C17.6792 3.95847 18.369 3.86818 19.0551 3.87448Z" fill="#9E5622"/>
<path d="M31.7598 16.2276C31.8978 16.2224 31.9404 16.4271 31.8312 16.4891C31.6375 16.5851 31.4207 16.6345 31.2202 16.7174C30.9146 16.8245 30.628 16.9673 30.3446 17.1227C30.5698 17.2455 30.8097 17.3715 31.0118 17.53C31.1472 17.6397 31.2663 17.7583 31.2915 17.9394C31.2779 18.1279 31.1482 18.2833 31.0055 18.3956C30.6978 18.6402 30.2747 18.7725 29.9141 18.9342C29.8223 18.9667 29.6816 19.0387 29.6207 18.9206C29.5671 18.8292 29.6175 18.7573 29.7031 18.7174C30.0522 18.5442 30.4831 18.4224 30.7944 18.1841C30.8663 18.1242 30.9724 18.0402 30.9839 17.9415C30.7703 17.646 30.332 17.4906 30.027 17.3069C29.9041 17.2166 29.9068 17.0843 30.0186 16.9851C30.4002 16.6891 30.9099 16.499 31.3608 16.3353C31.4879 16.2917 31.6249 16.2329 31.7598 16.2276Z" fill="black"/>
<path d="M22.3809 13.2996C23.014 13.6335 23.5316 14.1647 23.8476 14.8067C24.1405 14.6256 24.4386 14.4539 24.731 14.2718C24.8129 14.223 24.8959 14.1699 24.9877 14.1426C25.089 14.172 25.1331 14.2114 25.1305 14.3232C25.1058 14.3915 25.0386 14.4282 24.982 14.4681C24.6428 14.6754 24.2959 14.8707 23.9631 15.088C24.2817 15.8314 24.2764 16.7248 24.0056 17.4823C23.73 18.2608 23.1594 18.9295 22.436 19.3274C21.7499 19.7138 20.9195 19.8419 20.1478 19.6954C19.2098 19.5253 18.3599 18.9411 17.8644 18.1269C17.5358 17.6009 17.3562 16.9857 17.3583 16.3647C17.3379 15.5106 17.6654 14.6576 18.2413 14.0282C18.7384 13.4812 19.4239 13.0859 20.1552 12.9631C20.9048 12.8167 21.7069 12.9432 22.3809 13.2996Z" fill="black"/>
<path d="M20.3775 13.2295C21.147 13.1355 21.9161 13.313 22.5539 13.7555C23.1476 14.1602 23.5938 14.7802 23.7854 15.4731C23.9917 16.1749 23.9313 16.9571 23.6247 17.6216C23.2987 18.3492 22.6772 18.9476 21.9318 19.2327C21.4074 19.4442 20.819 19.5135 20.262 19.4117C19.4011 19.2731 18.6095 18.7492 18.1439 18.0117C17.8499 17.5508 17.6846 17.0159 17.652 16.471C17.6205 15.7125 17.8746 14.9413 18.356 14.3534C18.852 13.7371 19.5938 13.3287 20.3775 13.2295Z" fill="white"/>
<path d="M13.3164 14.4922C13.9237 14.8434 14.3899 15.4239 14.6046 16.0911C14.7453 16.5121 14.771 16.9762 14.7132 17.4145C14.6062 18.1468 14.2067 18.8239 13.6188 19.2738C13.0214 19.7336 12.244 19.9473 11.4959 19.8455C10.667 19.7499 9.90222 19.268 9.4471 18.5704C9.15629 18.1331 9.00248 17.6229 8.96941 17.1006C8.95261 16.7294 9.03083 16.3856 9.12269 16.0302C8.89487 15.8869 8.66862 15.7368 8.45025 15.5788C8.36101 15.5142 8.35419 15.4665 8.36994 15.3599C8.43818 15.2937 8.51377 15.2764 8.59828 15.3258C8.81823 15.4607 9.0261 15.6161 9.24133 15.7583C9.59251 15.0224 10.2408 14.4533 11.0245 14.2208C11.7831 13.9877 12.6329 14.0895 13.3164 14.4922Z" fill="black"/>
<path d="M11.4005 14.4378C12.3811 14.253 13.4152 14.6851 13.98 15.505C14.3737 16.0704 14.5496 16.8153 14.3937 17.4914C14.2908 18.0163 14.0194 18.5019 13.6288 18.8667C13.2068 19.2688 12.6514 19.5108 12.0724 19.5633C11.0157 19.6604 9.96532 19.0478 9.52018 18.0861C9.11808 17.2478 9.21362 16.2221 9.76165 15.4714C10.1485 14.9302 10.7459 14.5565 11.4005 14.4378Z" fill="white"/>
<path d="M19.1845 15.1826C19.815 15.033 20.4901 15.4041 20.7252 16.003C20.8418 16.3191 20.8475 16.6718 20.721 16.9857C20.5546 17.4225 20.1483 17.7516 19.6864 17.8219C19.2864 17.8918 18.8596 17.7621 18.5614 17.4876C18.1651 17.128 18.0202 16.5411 18.2066 16.0387C18.3599 15.6036 18.7347 15.2818 19.1845 15.1826ZM12.4523 15.7532C12.9504 15.6492 13.4817 15.8891 13.7352 16.3301C13.9168 16.624 13.9278 16.9742 13.8533 17.3033C13.7289 17.6834 13.4066 17.9978 13.0202 18.1049C12.626 18.2309 12.1667 18.108 11.8664 17.8298C11.4806 17.4723 11.3683 16.8849 11.6013 16.4125C11.7625 16.0708 12.0832 15.8288 12.4523 15.7532Z" fill="black"/>
<path d="M19.0147 10.8192C19.3386 10.7972 19.7019 10.7872 19.9832 10.9741C20.1764 11.1022 20.2667 11.3074 20.2184 11.5379C20.137 11.8612 19.8709 12.1111 19.609 12.299C19.1381 12.6292 18.5743 12.8366 18.0042 12.9043C17.7097 12.9321 17.3481 12.9269 17.0872 12.7704C16.8966 12.6586 16.7775 12.4492 16.8142 12.2266C16.8678 11.9248 17.1024 11.6759 17.336 11.4938C17.8184 11.1248 18.4147 10.8985 19.0147 10.8192ZM12.137 11.7048C12.6153 11.6859 13.0982 11.7316 13.5181 11.9799C13.7202 12.0985 13.9034 12.2891 13.9323 12.5305C13.9502 12.7515 13.8294 12.94 13.6599 13.0696C13.4226 13.256 13.1418 13.3321 12.8499 13.3841C12.3276 13.4376 11.7712 13.4009 11.3024 13.1437C11.0992 13.0234 10.8887 12.8366 10.8578 12.5888C10.8195 12.3647 10.9638 12.1442 11.1407 12.0198C11.4242 11.8166 11.7932 11.7211 12.137 11.7048Z" fill="black"/>
<path d="M18.0604 22.6444C18.3055 22.7116 18.526 22.8916 18.6987 23.0733C18.7706 23.1604 18.8856 23.2769 18.8588 23.3987C18.8346 23.5279 18.6619 23.5572 18.5937 23.4423C18.4577 23.257 18.3039 23.099 18.0976 22.9919C17.9785 22.9153 17.7449 22.9641 17.7506 22.7746C17.7758 22.616 17.9354 22.6223 18.0604 22.6444ZM17.6903 23.3441C17.9512 23.4234 18.1338 23.6517 18.1512 23.9247C18.2194 24.6166 17.6583 25.279 17.0094 25.457C16.3554 25.6491 15.494 25.3992 15.1685 24.7656C15.0388 24.5446 14.9727 24.2796 15.0667 24.0328C15.1601 23.8202 15.3722 23.7357 15.59 23.7126C15.8572 23.6817 16.0913 23.7709 16.3197 23.8985C16.5202 23.6864 16.726 23.5 16.9974 23.3835C17.211 23.2911 17.4677 23.2796 17.6903 23.3441Z" fill="black"/>
<path d="M17.7378 23.7187C17.9084 23.8962 17.8564 24.2174 17.7624 24.4216C17.5378 24.9492 16.9692 25.2683 16.4028 25.2085C16.0196 25.146 15.6517 24.9928 15.4475 24.6437C15.3724 24.5093 15.2674 24.2983 15.3419 24.1481C15.4616 23.9508 15.8023 23.9817 15.9866 24.0531C16.1309 24.0935 16.2769 24.2678 16.427 24.2416C16.6196 24.0547 16.7671 23.8494 17.0139 23.7229C17.2406 23.5969 17.5194 23.5497 17.7378 23.7187Z" fill="#8F2E45"/>
<path fill-rule="evenodd" clip-rule="evenodd" d="M21.2101 0.503493C21.9624 0.697719 22.7687 0.938138 23.4348 1.34601C24.0149 1.0426 24.65 0.902968 25.3015 0.882496C26.913 0.883021 28.4768 1.70612 29.4191 3.00795C29.9723 3.76753 30.3157 4.70402 30.2978 5.64995C31.5214 5.56544 32.6322 6.0384 33.5981 6.75336C35.0747 7.86202 36.1555 9.51347 36.6978 11.2694C36.9361 12.02 37.0364 12.7975 37.0621 13.5822C37.0585 13.7134 37.0468 13.8442 37.0351 13.975C37.0284 14.0506 37.0216 14.1261 37.0164 14.2017C36.9471 14.9507 36.7167 15.682 36.3031 16.3135C36.9188 17.1423 37.3713 18.0809 37.6689 19.0683C38.038 20.2867 38.1813 21.6552 37.8836 22.903C38.2989 22.9198 38.7104 22.945 39.1204 23.0158C39.7393 23.1355 40.3325 23.451 40.8427 23.8137C41.47 24.2547 41.9839 24.8421 42.2306 25.577C42.4464 26.2064 42.4359 26.8274 42.4196 27.4825C42.4207 27.5825 42.4192 27.6846 42.4177 27.7876C42.4127 28.1328 42.4075 28.4877 42.4989 28.808C42.6017 29.2221 42.8553 29.6064 43.1981 29.8604C43.4978 30.0646 43.8275 30.2106 44.1986 30.1654C44.2264 30.1659 44.2563 30.1639 44.2863 30.1619C44.4154 30.1535 44.5498 30.1448 44.5561 30.3203C44.4096 30.6405 44.1041 30.9056 43.818 31.1019C43.3792 31.3917 42.8779 31.6174 42.3456 31.6358L42.3462 31.6589C42.3533 31.963 42.3603 32.2566 42.3178 32.5597C42.2348 33.1187 42.0506 33.6594 41.7855 34.1581C41.2616 35.1455 40.4527 35.987 39.5241 36.6027C39.5062 36.5907 39.4878 36.5794 39.4689 36.5691C39.4026 36.5312 39.3244 36.4864 39.3235 36.4137C39.3235 36.3316 39.3335 36.2504 39.3435 36.169C39.3547 36.0771 39.366 35.9852 39.3629 35.8919C39.3613 35.3618 39.0894 34.861 38.7062 34.5066C38.1923 34.03 37.4989 33.7786 36.8049 33.7392C37.3981 34.6059 37.5052 35.6736 37.2763 36.6814C37.0537 37.63 36.5398 38.5098 35.8275 39.1738C35.1996 39.7675 34.375 40.2059 33.5115 40.3098C33.4831 40.4977 33.4464 40.6783 33.3508 40.8447C33.1172 41.2704 32.6941 41.5975 32.2616 41.8038C31.7403 42.0494 31.1214 42.1801 30.5482 42.0872C30.4248 42.0704 30.3256 41.9476 30.3797 41.8237C30.4197 41.7807 30.4618 41.7419 30.5034 41.7034L30.5035 41.7033C30.5908 41.6228 30.6761 41.5441 30.7361 41.4321C30.9886 40.977 31.0464 40.4174 30.8742 39.924C30.7361 39.4657 30.3498 39.0977 29.8936 38.9623C29.5965 38.8762 29.2836 38.8452 28.976 38.8862C28.37 38.9597 27.7967 39.1681 27.2255 39.3757C27.0665 39.4335 26.9076 39.4913 26.7482 39.546C25.9251 39.8206 25.1256 40.0599 24.2516 40.0967C23.5167 40.0904 22.7996 39.9077 22.2112 39.4531C21.6201 39.0085 21.2574 38.3434 21.1225 37.6227C20.9839 36.9523 21.0154 36.2757 21.1451 35.6069C20.4296 36.2426 19.8941 37.0872 19.7451 38.0426C19.7015 38.3318 19.7199 38.6127 19.7818 38.8972C19.8086 38.9993 19.7555 39.0376 19.6923 39.0833C19.6737 39.0968 19.6541 39.111 19.6353 39.1276C19.3538 38.948 19.2256 38.6804 19.0878 38.3928L19.0663 38.3481C18.8511 37.8835 18.6931 37.3996 18.6264 36.8914C18.5849 36.4111 18.6091 35.9276 18.7314 35.4599C18.8621 34.9581 19.0968 34.4206 19.4789 34.0594C19.8154 33.7586 20.261 33.5653 20.6931 33.3777C20.8651 33.3031 21.0349 33.2294 21.1949 33.1502L21.2563 33.1211C21.5876 32.9644 21.9143 32.81 22.0716 32.4515C22.3157 31.8856 22.2091 31.2053 22.0632 30.6269C21.6322 31.283 20.955 31.6988 20.207 31.9019C19.3319 32.1408 18.3713 32.0893 17.534 31.736C17.5702 32.1665 17.5996 32.5733 17.4794 32.9948C17.2632 33.8452 16.6789 34.5245 15.9555 34.9975C15.0842 35.5639 14.0128 35.8374 12.9813 35.8673C12.934 36.5702 12.5587 37.1397 12.0726 37.6237C11.3141 38.3717 10.2915 38.8725 9.26473 39.1313C8.5125 39.3129 7.7335 39.377 6.96867 39.2332C6.95145 39.2284 6.93434 39.2243 6.91744 39.2202C6.83298 39.1998 6.75481 39.1809 6.70358 39.0982C6.69728 38.9927 6.71093 38.8746 6.83219 38.8479C6.88547 38.8365 6.93817 38.8265 6.99024 38.8165C7.24248 38.7683 7.48011 38.7229 7.69676 38.5523C7.94715 38.3528 8.04794 38.0395 8.07103 37.7303C8.07943 37.3135 7.86421 36.9471 7.56185 36.6751C7.16815 36.3234 6.63429 36.103 6.13035 35.9633C5.723 35.8568 5.30253 35.7628 4.88206 35.7324C4.60746 35.7008 4.32122 35.7225 4.03492 35.7443C3.72578 35.7677 3.4166 35.7912 3.12195 35.7476C2.65791 35.6846 2.22169 35.4269 1.90778 35.0841C1.66526 34.8174 1.5293 34.4935 1.44111 34.1481C1.18284 34.535 1.03114 35.0095 1.15187 35.4725C1.17969 35.5944 1.24542 35.6789 1.31382 35.767C1.34626 35.8087 1.37927 35.8512 1.40909 35.8988C1.42274 36.0395 1.22379 36.1429 1.10358 36.0919C0.561322 35.956 0.0558097 35.7765 -0.306395 35.3261C-0.552064 35.377 -0.799833 35.3996 -1.05075 35.377C-1.52109 35.3434 -1.95941 35.0961 -2.29222 34.7712C-2.82818 34.2515 -3.14996 33.5145 -3.30797 32.7943C-3.5043 31.8751 -3.4875 30.903 -3.28382 29.987C-3.07805 29.0725 -2.6623 28.1329 -1.99773 27.4584C-2.37779 27.2531 -2.60351 26.8967 -2.74157 26.4977C-2.93002 25.9276 -2.94577 25.2967 -2.82503 24.7108C-2.71112 24.1224 -2.44865 23.5124 -1.98409 23.1161C-2.30797 22.9366 -2.52949 22.6678 -2.6644 22.3245C-2.95626 21.5812 -2.82136 20.6814 -2.37411 20.0269C-2.21243 19.7954 -1.99931 19.5759 -1.74629 19.4463C-1.64078 19.3807 -1.4749 19.4347 -1.45863 19.5649C-1.46687 19.6522 -1.48682 19.7372 -1.50687 19.8224C-1.52766 19.9109 -1.54849 19.9995 -1.55626 20.0909C-1.60771 20.5534 -1.44288 21.0321 -1.11059 21.3591C-0.766762 21.7051 -0.271224 21.8788 0.209091 21.9009C0.888881 21.924 1.57654 21.6767 2.09781 21.2421C2.54085 20.8799 2.83481 20.3959 2.95607 19.8363C2.49308 18.8967 2.45109 17.862 2.5314 16.8358C2.62851 15.8673 2.99124 14.966 3.50358 14.145C3.51576 14.1196 3.53245 14.0939 3.54941 14.068C3.60032 13.9897 3.65329 13.9084 3.59019 13.8221C3.14505 13.0027 2.97969 12.0279 3.05738 11.104C3.14452 10.0074 3.5272 8.95809 4.10358 8.02633C4.91145 6.72816 6.1251 5.64365 7.54767 5.06727C8.37497 4.72712 9.27366 4.57803 10.1655 4.67672C10.2679 4.24418 10.4259 3.82108 10.6332 3.42738C10.9409 2.8342 11.4238 2.31977 11.9429 1.90507C13.0584 1.01898 14.4663 0.550736 15.8548 0.309267C17.6343 0.0111039 19.4595 0.0515245 21.2101 0.503493ZM13.4699 6.53971C13.314 6.79221 13.1702 7.0384 13.1067 7.33236C13.0552 7.57436 13.0096 7.82528 13.0106 8.07252C13.0111 8.19746 13.1382 8.36596 13.2731 8.27987C13.8138 7.94864 14.3996 7.67935 15.0027 7.48092C16.0505 7.15021 17.1219 7.03788 18.2148 6.99483C19.1361 6.99851 20.0474 7.10244 20.9355 7.35231C21.0019 7.36958 21.0251 7.41672 21.051 7.46921C21.0589 7.48528 21.067 7.50187 21.0768 7.51819C21.2559 7.88984 21.4181 8.269 21.5803 8.64816L21.5803 8.64827C21.7361 9.01236 21.8918 9.37651 22.0626 9.73394C22.4888 10.6463 23.0185 11.5045 23.6652 12.2772C24.1035 12.803 24.6114 13.2666 25.1749 13.6552C25.7198 14.0489 26.3602 14.3024 27.0306 14.3696C27.1761 14.3811 27.3228 14.3795 27.4693 14.3779H27.4694C27.5586 14.377 27.6478 14.376 27.7366 14.378C27.8153 14.8988 27.7607 15.4132 27.6846 15.9324C27.555 16.8017 27.3151 17.6526 26.9807 18.4652C26.7256 19.082 26.3775 19.6531 25.955 20.1691C25.4468 20.8169 24.7928 21.2825 24.1229 21.7481C23.7056 22.0242 23.3025 22.3177 22.9334 22.6568C22.4174 23.1166 22.0059 23.6883 21.6857 24.2982C21.4447 24.7654 21.2432 25.2694 21.145 25.7864C21.0962 26.0636 21.0684 26.3502 21.0437 26.6305L20.9405 26.6427C20.4352 26.7024 19.9328 26.7618 19.4222 26.7549C17.8867 26.787 16.3418 26.4825 14.9219 25.9019C13.5014 25.3234 12.2216 24.4489 11.134 23.3712C11.1337 23.3341 11.1335 23.2971 11.1333 23.2601V23.2598C11.1319 22.9857 11.1305 22.7149 11.081 22.4426C10.9083 21.3927 10.4122 20.4562 9.74762 19.6363C9.39177 19.1932 8.98353 18.8226 8.56263 18.4405C8.47373 18.3599 8.38508 18.2791 8.2967 18.198C8.28731 18.1886 8.27775 18.1795 8.2683 18.1704C8.21345 18.1178 8.16053 18.067 8.1408 17.9891C7.86521 16.8709 7.77912 15.7192 7.84473 14.5707C8.00484 12.0505 9.03214 9.55546 10.7403 7.68932C10.8762 7.86832 11.0279 8.06307 11.2101 8.19641C11.2672 8.24354 11.3276 8.2479 11.3938 8.25273C11.4109 8.25399 11.4284 8.25525 11.4463 8.2573C11.8615 7.42265 12.6374 6.90192 13.4699 6.53971ZM32.9272 15.8772C32.3655 15.1119 31.4212 14.7009 30.4763 14.8017C30.8448 15.757 31.1472 16.6961 31.1786 17.7292C31.2206 18.8499 30.9723 19.9891 30.533 21.0179C31.3886 20.9518 32.1786 20.5056 32.7193 19.8458C33.2149 19.2426 33.5146 18.4615 33.5004 17.6767C33.5146 17.0347 33.3094 16.3933 32.9272 15.8772Z" fill="black"/>
<path fill-rule="evenodd" clip-rule="evenodd" d="M22.1097 1.0836C21.042 0.729272 19.9181 0.488852 18.7927 0.444232C18.1223 0.38439 17.4661 0.434259 16.7979 0.487277C15.3144 0.643183 13.7449 1.03478 12.4945 1.87835C11.7837 2.36339 11.1465 2.99856 10.7916 3.79279C10.5428 4.34607 10.3428 4.99069 10.3806 5.60276C10.4326 6.41379 10.7013 7.30775 11.2819 7.90093C11.4488 7.66733 11.6121 7.43951 11.8189 7.23846C12.1948 6.87363 12.6394 6.59436 13.1097 6.36759L13.1359 6.35568C13.3295 6.26728 13.5424 6.17011 13.7543 6.15657C13.8441 6.15709 13.905 6.19961 13.9386 6.28203C13.9476 6.37814 13.8969 6.45216 13.8458 6.5267C13.8374 6.53888 13.8291 6.55111 13.821 6.56339C13.685 6.75027 13.5575 6.93557 13.4672 7.14974C13.3773 7.35158 13.3426 7.57903 13.3089 7.79972C13.3035 7.8354 13.298 7.87106 13.2924 7.9067C13.9291 7.55867 14.5827 7.26261 15.2871 7.0794C16.2388 6.83111 17.2304 6.71877 18.2126 6.69568C19.0971 6.68728 19.9748 6.80801 20.8299 7.03216C20.4409 6.31037 19.9559 5.60224 19.3496 5.04528C18.7255 4.46103 17.9601 3.98492 17.1375 3.74292C16.664 3.60171 16.1843 3.59541 15.695 3.61169C15.312 3.60786 14.9395 3.66103 14.5627 3.71484L14.4614 3.72927C14.1638 3.77809 13.8819 3.83793 13.6252 4.00434C13.5522 4.06061 13.4878 4.05704 13.4073 4.05258C13.394 4.05184 13.3802 4.05106 13.3659 4.05053C13.3695 4.02554 13.3692 3.99951 13.3689 3.97373C13.3682 3.90969 13.3676 3.84722 13.4268 3.80644C13.6609 3.62009 13.9869 3.52927 14.2766 3.47153C14.8861 3.36602 15.4961 3.28045 16.115 3.29778C17.0541 3.29305 17.9071 3.63373 18.6856 4.1361C19.2441 4.5067 19.7528 4.95867 20.1738 5.48098C20.8221 6.28308 21.2766 7.17232 21.684 8.11457L21.7078 8.17064C21.9792 8.80896 22.2528 9.45232 22.568 10.07C22.9974 10.8936 23.5249 11.6831 24.1528 12.3692C24.5344 12.7917 24.9864 13.1597 25.4572 13.4784C25.9228 13.7938 26.4735 14.0038 27.0331 14.0626C27.1649 14.0767 27.2998 14.0731 27.4348 14.0694C27.6216 14.0644 27.8083 14.0594 27.9864 14.1015C28.0971 14.5356 28.0929 14.9755 28.0546 15.4185C27.9827 16.1266 27.8504 16.8274 27.6415 17.5083C27.3969 18.3398 27.0714 19.1319 26.5764 19.8479C26.2887 20.2547 25.9832 20.6432 25.6152 20.9812C25.1337 21.426 24.5729 21.8093 24.0299 22.1803L23.9365 22.2442C23.3102 22.6878 22.7459 23.1823 22.3207 23.8285C21.8184 24.577 21.4242 25.482 21.3738 26.3902L21.3735 26.3984C21.3657 26.6928 21.3578 26.9918 21.3921 27.2847C21.4892 27.9917 21.7155 28.6243 21.9425 29.2591C22.1339 29.794 22.3257 30.3305 22.4415 30.9146C22.5312 31.44 22.5732 31.9403 22.3979 32.4547C22.3118 32.7036 22.1648 32.9156 21.9543 33.0747C21.7571 33.2259 21.5192 33.3353 21.2876 33.4419C21.2135 33.4756 21.1399 33.5101 21.0667 33.5455C20.9671 33.592 20.8617 33.6377 20.7539 33.6845C20.3488 33.8602 19.9092 34.0508 19.6173 34.3518C19.2079 34.8075 19.0021 35.4616 18.9302 36.0605C18.8205 36.9067 19.0646 37.6679 19.411 38.4264C19.4331 37.1697 20.1622 35.997 21.1244 35.228C21.1423 35.2153 21.1605 35.2008 21.1792 35.1861C21.2662 35.1174 21.363 35.0409 21.4745 35.0889C21.5746 35.1432 21.5504 35.2324 21.5264 35.3213C21.5195 35.3467 21.5126 35.372 21.5087 35.3965C21.3764 35.9629 21.274 36.5802 21.3622 37.1602C21.4163 37.7482 21.5974 38.3377 21.9732 38.8017C22.4819 39.4295 23.2924 39.7755 24.094 39.7781C24.8803 39.8064 25.61 39.5844 26.3538 39.3545C26.6144 39.2733 26.874 39.179 27.1345 39.0845C27.7949 38.8449 28.4608 38.6033 29.1622 38.566C29.7307 38.5539 30.2919 38.6868 30.7076 39.0957C31.2299 39.5802 31.3564 40.3692 31.1963 41.0385C31.1286 41.3324 30.9927 41.5833 30.8074 41.819C31.4877 41.818 32.1554 41.6106 32.6824 41.1739C32.9475 40.9461 33.168 40.6637 33.1948 40.302C33.1991 40.2798 33.2014 40.2562 33.2038 40.2324C33.211 40.159 33.2184 40.0839 33.2866 40.0427C33.3648 40.0208 33.4457 40.0091 33.5266 39.9974C33.5851 39.9889 33.6437 39.9805 33.7013 39.9681C34.4452 39.8306 35.1255 39.4264 35.6677 38.9078C36.3612 38.2374 36.8588 37.3434 37.0226 36.3902C37.1596 35.6306 37.0814 34.8327 36.6997 34.1524C36.6505 34.0603 36.5895 33.9768 36.5286 33.8933C36.4856 33.8344 36.4425 33.7754 36.4037 33.7135C36.3386 33.5833 36.4341 33.4211 36.5858 33.4316C37.0184 33.4232 37.4672 33.5046 37.874 33.6516C38.5066 33.8841 39.0814 34.3156 39.4068 34.9141C39.6126 35.2894 39.6997 35.7072 39.6656 36.134C40.4992 35.4999 41.2273 34.6899 41.6567 33.7272C41.9281 33.1251 42.0756 32.4726 42.0399 31.8101C42.0236 31.6647 42.0656 31.4049 42.2131 31.3424C42.905 31.3277 43.5927 30.9807 44.0709 30.4899C43.6289 30.461 43.2283 30.2894 42.8903 30.0064C42.4652 29.6301 42.1976 29.1073 42.1407 28.5424C42.0746 28.1433 42.0943 27.7547 42.1142 27.3591C42.1191 27.2641 42.1239 27.1686 42.1276 27.0726C42.1202 26.5434 42.0929 26.0385 41.8924 25.5429C41.6178 24.8427 41.0903 24.3303 40.4698 23.9277C40.0173 23.6353 39.536 23.3986 39.0011 23.3036C38.7962 23.2612 38.5931 23.2511 38.3878 23.2408C38.3127 23.2373 38.2377 23.233 38.1627 23.228C37.7407 23.1928 37.3297 23.1555 36.926 23.0196C36.6451 22.9235 36.3948 22.7461 36.1633 22.5644C35.8614 22.3308 35.5738 22.0448 35.3806 21.7135C35.3134 21.5923 35.2357 21.4353 35.2656 21.2946C35.3044 21.2168 35.3545 21.2201 35.4167 21.2242C35.4388 21.2257 35.4625 21.2273 35.4877 21.2253L35.4883 21.2274C35.538 21.3847 35.5863 21.5377 35.6856 21.6731C35.9412 22.0369 36.3092 22.334 36.6819 22.5707C36.9559 22.744 37.2551 22.8049 37.5685 22.8616C37.8661 21.7933 37.7486 20.5781 37.4777 19.5151C37.1942 18.4196 36.7087 17.3545 36.0236 16.4511C35.9327 16.3384 35.9872 16.2485 36.046 16.1514C36.0609 16.1268 36.0761 16.1017 36.0892 16.0757C36.59 15.2873 36.7638 14.3471 36.7486 13.4238C36.7223 12.2668 36.4016 11.1093 35.8992 10.0705C35.2777 8.79909 34.3454 7.61746 33.1675 6.82009C32.4504 6.3382 31.5806 5.97074 30.7081 5.94502C30.5851 5.9372 30.4642 5.94806 30.3432 5.95893C30.2535 5.96696 30.1639 5.97505 30.0735 5.97547C29.9417 5.95111 29.9592 5.83053 29.9752 5.71946C29.9813 5.67746 29.9872 5.63683 29.9848 5.60329C30.0042 4.92455 29.7911 4.22848 29.4625 3.63846C28.6284 2.15762 26.9585 1.15342 25.2488 1.19751C24.7864 1.20014 24.3223 1.29673 23.8945 1.47153C23.8352 1.49478 23.7781 1.52308 23.721 1.55137C23.6531 1.58502 23.5852 1.61862 23.5139 1.64371C23.4158 1.67363 23.316 1.63426 23.2326 1.58334C22.8819 1.37022 22.4982 1.21274 22.1097 1.0836ZM32.927 15.8768C32.3654 15.1114 31.421 14.7004 30.4761 14.8012C30.8446 15.7566 31.147 16.6957 31.1785 17.7287C31.2205 18.8495 30.9722 19.9886 30.5328 21.0175C31.3885 20.9513 32.1785 20.5051 32.7192 19.8453C33.2147 19.2421 33.5144 18.461 33.5003 17.6763C33.5144 17.0343 33.3092 16.3928 32.927 15.8768Z" fill="#592454"/>
<path d="M10.1104 4.97319C9.99069 5.79366 10.1933 6.66768 10.566 7.40206C9.77336 8.29235 9.10407 9.28763 8.60591 10.3721C7.6857 12.348 7.33819 14.5784 7.60538 16.7412C7.63111 17.0031 7.6899 17.2588 7.71352 17.5207C7.61221 17.3396 7.56076 17.1553 7.52559 16.9517C7.49357 16.8367 7.38701 16.8105 7.29357 16.8882C7.2479 16.9989 7.27258 17.1406 7.30197 17.2535C7.39384 17.5648 7.54712 17.8582 7.77336 18.0934C8.41011 18.748 9.09935 19.2666 9.6458 19.9989C10.3014 20.853 10.7849 21.8892 10.8285 22.9779C10.849 23.5611 10.7277 24.148 10.4532 24.6645C10.1214 25.2934 9.6416 25.7973 9.13872 26.2908C8.42796 26.9853 7.59279 27.6504 6.96654 28.4194C6.74974 28.6955 6.52402 29.0288 6.45578 29.3784C6.37651 29.8063 6.58911 30.2299 6.90302 30.5107C7.19279 30.7653 7.52874 30.9874 7.92717 30.9989C8.00748 30.9994 8.07625 30.9354 8.06523 30.853C8.06995 30.7433 7.95551 30.7228 7.8731 30.6955C7.72349 30.6603 7.57966 30.6225 7.44843 30.5391C7.14869 30.3522 6.85525 30.1102 6.77074 29.7501C6.7004 29.5223 6.78229 29.2829 6.88885 29.0798C7.1088 28.6677 7.45578 28.3076 7.78386 27.9795C8.40853 27.3511 9.13242 26.7622 9.74554 26.1086C10.3923 25.4341 10.9245 24.6892 11.0815 23.7464C13.0406 25.6446 15.6584 26.8346 18.3823 27.0278C18.7524 27.043 19.1041 27.0913 19.4757 27.0698C20.0043 27.0362 20.5287 27.0152 21.0521 26.928C21.1277 28.1112 21.5818 29.0798 21.9392 30.1826C21.7996 30.507 21.6106 30.7606 21.3413 30.9884C20.7833 31.4567 20.0395 31.7002 19.3188 31.7406C18.6862 31.7795 18.0532 31.6546 17.4862 31.37C17.3324 31.2939 17.2269 31.3984 17.1492 31.5217C17.3445 32.1601 17.2894 32.8588 16.9849 33.4535C16.6169 34.1895 15.9329 34.7333 15.1938 35.0672C13.998 35.6063 12.6117 35.6939 11.3377 35.4147C11.2222 35.3931 11.092 35.3422 10.9749 35.3606C10.8547 35.4556 10.8574 35.59 11.0101 35.6435C11.5482 35.7937 12.1209 35.8666 12.6799 35.8687C12.6379 36.2603 12.4941 36.6047 12.2689 36.9254C11.8479 37.5254 11.2091 37.9926 10.5623 38.3238C9.63846 38.7895 8.57389 39.0577 7.53662 39.001C7.71667 38.9055 7.88675 38.8236 8.02271 38.6661C8.38124 38.2556 8.47363 37.6257 8.25945 37.1259C8.11457 36.7711 7.82848 36.4677 7.51667 36.2509C6.89935 35.8283 6.21221 35.6425 5.48622 35.5055C5.08097 35.4283 4.66365 35.3952 4.2521 35.4252C3.87625 35.4393 3.52927 35.5008 3.15079 35.4435C2.42743 35.3322 1.80171 34.7401 1.71405 34.0026C1.70512 33.9081 1.7214 33.8047 1.69672 33.7133C1.65263 33.6435 1.47993 33.6299 1.42323 33.6923C0.912471 34.2472 0.661553 35.0236 0.948167 35.7517C0.515622 35.611 0.0652275 35.4551 -0.15472 35.0215C-0.39304 34.9916 -0.603013 35.0944 -0.839759 35.0882C-1.37624 35.0992 -1.85866 34.8152 -2.20616 34.4231C-2.66128 33.9076 -2.92165 33.2099 -3.04868 32.5417C-3.25708 31.3994 -3.12532 30.1821 -2.68963 29.1065C-2.40459 28.4084 -1.94947 27.7049 -1.3122 27.2813C-1.11377 27.1417 -0.889103 27.0756 -0.670731 26.9779C-0.584641 26.9023 -0.637135 26.8162 -0.650783 26.7223C-0.742646 26.7244 -0.82926 26.7207 -0.917974 26.7501C-1.23031 26.8551 -1.49645 27.0288 -1.75472 27.2294C-2.18149 27.0645 -2.37362 26.6719 -2.4954 26.2582C-2.64711 25.6745 -2.62034 25.0372 -2.45131 24.4598C-2.31115 24.0073 -2.07493 23.5275 -1.66548 23.2619C-1.58622 23.2042 -1.5059 23.1538 -1.53582 23.0409C-1.55577 22.9191 -1.68333 22.9128 -1.77624 22.8651C-2.11272 22.7433 -2.3143 22.4241 -2.42086 22.0986C-2.65918 21.3354 -2.42716 20.421 -1.84133 19.8724C-1.88438 20.2792 -1.87493 20.6745 -1.69488 21.0498C-1.40459 21.6803 -0.778342 22.0719 -0.105376 22.1732C1.25263 22.3832 2.74082 21.5385 3.16706 20.2136C3.57179 20.8719 4.14239 21.4756 4.40853 22.1868C4.58754 22.6609 4.59541 23.2168 4.53767 23.7144C4.51772 23.8351 4.69305 23.8845 4.76759 23.811C4.85788 23.7191 4.86103 23.5711 4.86995 23.4509C4.8878 22.9391 4.8521 22.4309 4.64423 21.9569C4.29725 21.137 3.66103 20.5448 3.24895 19.7312C3.00958 19.2703 2.88308 18.7669 2.83583 18.2509C2.75499 17.6225 2.79594 16.9753 2.9151 16.3543C3.05945 15.6089 3.37651 14.9422 3.76601 14.2965C4.01693 13.8603 4.31352 13.4556 4.61956 13.0567C4.80696 12.8173 5.05578 12.5574 5.15971 12.2693C5.17651 12.1406 5.06523 12.0819 4.95709 12.1359C4.82953 12.2903 4.74187 12.474 4.60643 12.6246C4.33084 12.9454 4.0815 13.2866 3.83216 13.6278C3.35027 12.7049 3.25735 11.6614 3.42113 10.6435C3.67363 9.12752 4.48045 7.7312 5.59646 6.68553C6.47887 5.85928 7.56969 5.24563 8.76654 5.02831C9.20486 4.93802 9.66575 4.94432 10.1104 4.97319Z" fill="#592454"/>
<path fill-rule="evenodd" clip-rule="evenodd" d="M30.2785 14.3917C30.2071 14.2523 30.1215 14.0852 29.966 14.1321C29.8579 14.2056 29.8974 14.2804 29.9448 14.37L29.956 14.3914C30.1733 14.7505 30.3156 15.172 30.4458 15.5704C30.7565 16.5137 30.9481 17.4654 30.8599 18.4633C30.7749 19.604 30.4164 20.7064 29.8452 21.6953C29.6925 21.9681 29.5168 22.2365 29.3402 22.5062C28.9972 23.0303 28.6509 23.5594 28.4631 24.1358C28.2709 24.6969 28.2919 25.3169 28.5696 25.8455C28.7355 26.161 28.9828 26.4135 29.2678 26.624C29.5664 26.8512 29.8886 27.0026 30.2156 27.1562C30.4874 27.2839 30.7626 27.4131 31.03 27.5888C31.5051 27.899 31.9219 28.3169 32.1198 28.8586C32.2647 29.2303 32.283 29.6192 32.2479 30.0135C32.2321 30.3468 32.1786 30.6429 32.0762 30.9599C32.0547 31.0324 32.0232 31.1804 32.1234 31.2051C32.1896 31.2696 32.3056 31.1799 32.3329 31.1106C32.4553 30.8609 32.4943 30.5531 32.5295 30.2754C32.5323 30.2542 32.5349 30.2332 32.5376 30.2124C32.5812 29.7342 32.5922 29.2738 32.4279 28.815C32.1996 28.1368 31.6862 27.6318 31.0872 27.2654C30.8417 27.1129 30.5948 26.9971 30.3521 26.8833C30.0318 26.7331 29.7186 26.5862 29.4248 26.3625C29.1544 26.1499 28.9203 25.9121 28.7854 25.5898C28.5838 25.1284 28.6069 24.614 28.7801 24.1478C28.9676 23.6301 29.2869 23.1422 29.6024 22.6598C29.7719 22.4008 29.9403 22.1433 30.0867 21.8838C30.1375 21.8012 30.1824 21.7149 30.2273 21.6288C30.2779 21.5316 30.3285 21.4344 30.3875 21.3426C30.957 21.2943 31.5056 21.1583 31.9985 20.8597C33.2898 20.1085 34.04 18.5179 33.7497 17.046C33.6164 16.2534 33.1633 15.5053 32.5051 15.0402C31.893 14.5951 31.0909 14.414 30.3444 14.509C30.3227 14.478 30.3013 14.4363 30.2785 14.3917ZM32.9271 15.8775C32.3654 15.1121 31.4211 14.7011 30.4762 14.8019C30.8447 15.7573 31.1471 16.6964 31.1786 17.7295C31.2206 18.8502 30.9723 19.9893 30.5329 21.0182C31.3885 20.952 32.1786 20.5058 32.7192 19.846C33.2148 19.2429 33.5145 18.4618 33.5003 17.677C33.5145 17.035 33.3093 16.3935 32.9271 15.8775Z" fill="black"/>
</svg>
