<svg width="35" height="36" viewBox="0 0 35 36" fill="none" xmlns="http://www.w3.org/2000/svg">
<path d="M32.9 18.2646C32.9 17.1271 32.7979 16.0334 32.6083 14.9834H17.5V21.1886H26.1333C25.7615 23.1938 24.6313 24.8928 22.9323 26.0303V30.0553H28.1167C31.15 27.2626 32.9 23.1501 32.9 18.2646Z" fill="#4285F4"/>
<path d="M17.4995 33.942C21.8307 33.942 25.462 32.5055 28.1161 30.0555L22.9318 26.0305C21.4953 26.993 19.6578 27.5618 17.4995 27.5618C13.3214 27.5618 9.78489 24.7399 8.52344 20.9482H3.16406V25.1045C5.80365 30.3472 11.2286 33.942 17.4995 33.942Z" fill="#34A853"/>
<path d="M8.52461 20.9484C8.20378 19.9859 8.02149 18.9577 8.02149 17.9005C8.02149 16.8432 8.20378 15.815 8.52461 14.8525V10.6963H3.16524C2.04232 12.9317 1.45799 15.3988 1.45899 17.9005C1.45899 20.489 2.07878 22.939 3.16524 25.1046L8.52461 20.9484Z" fill="#FBBC05"/>
<path d="M17.4995 8.23861C19.8547 8.23861 21.9693 9.04798 23.6318 10.6376L28.2328 6.03652C25.4547 3.44798 21.8234 1.8584 17.4995 1.8584C11.2286 1.8584 5.80365 5.45319 3.16406 10.6959L8.52344 14.8521C9.78489 11.0605 13.3214 8.23861 17.4995 8.23861Z" fill="#EA4335"/>
</svg>
