<svg width="130" height="34" viewBox="0 0 130 34" fill="none" xmlns="http://www.w3.org/2000/svg">
<path d="M113.411 7.89662L110.637 25.2843C110.626 25.3482 110.63 25.4135 110.648 25.4757C110.665 25.538 110.696 25.5957 110.739 25.6447C110.781 25.6937 110.833 25.7329 110.892 25.7596C110.952 25.7862 111.016 25.7996 111.081 25.7989H114.364C114.48 25.7999 114.592 25.7594 114.681 25.6849C114.769 25.6104 114.828 25.5067 114.846 25.3926L117.621 8.00492C117.631 7.94107 117.627 7.87572 117.61 7.81347C117.592 7.75121 117.561 7.69355 117.519 7.64452C117.477 7.59549 117.424 7.55628 117.365 7.52965C117.306 7.50301 117.242 7.48959 117.177 7.49033H113.894C113.777 7.48803 113.664 7.528 113.576 7.60276C113.487 7.67753 113.428 7.78198 113.411 7.89662ZM109.905 12.9708H106.79C106.674 12.9696 106.562 13.0099 106.474 13.0844C106.385 13.1588 106.326 13.2624 106.308 13.3764L106.205 14.0165C106.205 14.0165 103.785 11.3994 99.5016 13.168C97.0441 14.1807 95.8644 16.2728 95.3624 17.8055C95.3624 17.8055 93.7692 22.4637 97.3725 25.0277C97.3725 25.0277 100.714 27.4937 104.476 24.8759L104.411 25.2843C104.396 25.3802 104.413 25.4784 104.459 25.5639C104.505 25.6494 104.578 25.7174 104.667 25.7575C104.726 25.7851 104.79 25.7989 104.855 25.7989H107.972C108.089 25.8012 108.202 25.7612 108.29 25.6865C108.379 25.6117 108.438 25.5072 108.455 25.3926L110.351 13.4853C110.362 13.4216 110.358 13.3562 110.34 13.2941C110.322 13.2319 110.291 13.1745 110.248 13.126C110.206 13.0765 110.153 13.0369 110.094 13.01C110.035 12.983 109.97 12.9701 109.905 12.9708ZM105.321 19.5514C105.2 20.3833 104.778 21.1425 104.135 21.6863C103.49 22.2322 102.668 22.5269 101.822 22.5162C101.49 22.52 101.16 22.4721 100.843 22.3741C99.4982 21.9464 98.7306 20.6675 98.9512 19.281C99.0737 18.4495 99.4958 17.691 100.139 17.1475C100.783 16.6013 101.604 16.3057 102.45 16.3149C102.782 16.3115 103.112 16.3599 103.429 16.4584C104.783 16.8833 105.547 18.1642 105.325 19.5521H105.321V19.5514ZM88.6868 19.8804C90.3761 19.8804 92.0101 19.2817 93.2935 18.1932C94.5742 17.1084 95.4222 15.6011 95.6832 13.9454C96.2288 10.5013 93.512 7.49516 89.6604 7.49516H83.4556C83.3398 7.49405 83.2275 7.53445 83.139 7.60902C83.0506 7.68359 82.9919 7.78736 82.9737 7.90145L80.1987 25.2891C80.1837 25.3851 80.2005 25.4833 80.2467 25.5687C80.2929 25.6542 80.3659 25.7222 80.4546 25.7623C80.514 25.7899 80.5777 25.8037 80.6427 25.8037H83.9279C84.0437 25.8048 84.1561 25.7644 84.2445 25.6899C84.333 25.6153 84.3917 25.5115 84.4099 25.3974L85.2245 20.2916C85.2416 20.1768 85.3 20.0722 85.3889 19.9973C85.4777 19.9224 85.5908 19.8823 85.7071 19.8846L88.6868 19.8804ZM91.4347 13.7889C91.2321 15.0622 90.2378 15.9997 88.3355 15.9997H85.9035L86.642 11.369H89.0304C90.997 11.3725 91.6373 12.521 91.4347 13.7923V13.7889Z" fill="#0070E0"/>
<path d="M76.4554 13.2653L72.6979 19.5459L70.7907 13.3115C70.7609 13.212 70.6994 13.1249 70.6156 13.0633C70.5318 13.0017 70.4302 12.969 70.3261 12.9701H66.935C66.8473 12.9689 66.7621 12.9994 66.6951 13.0559C66.6281 13.1124 66.5839 13.1912 66.5706 13.2777C66.5623 13.3351 66.5683 13.3935 66.5879 13.4481L70.0052 23.9495L66.9142 28.8981C66.888 28.9389 66.8704 28.9845 66.8624 29.0323C66.8545 29.0801 66.8564 29.129 66.8681 29.176C66.8797 29.223 66.9009 29.2671 66.9302 29.3057C66.9595 29.3443 66.9965 29.3765 67.0387 29.4003C67.0953 29.4327 67.1595 29.4494 67.2247 29.4486H70.8772C70.9814 29.4489 71.084 29.4225 71.1749 29.3717C71.2659 29.321 71.3422 29.2477 71.3965 29.1589L80.9418 13.5233C80.9764 13.4688 80.9954 13.406 80.9967 13.3415C80.9981 13.2771 80.9817 13.2135 80.9494 13.1577C80.9172 13.1017 80.8705 13.0553 80.8142 13.0234C80.7578 12.9915 80.694 12.9752 80.6292 12.9763H76.9782C76.8734 12.9753 76.7702 13.0014 76.6786 13.0521C76.587 13.1027 76.5101 13.1762 76.4554 13.2653ZM65.0126 12.9701H61.8947C61.7787 12.9689 61.6662 13.0094 61.5776 13.0841C61.489 13.1588 61.4303 13.2628 61.4121 13.377L61.3111 14.0165C61.3111 14.0165 58.8895 11.3994 54.6057 13.168C52.1489 14.1806 50.9685 16.2728 50.4686 17.8055C50.4686 17.8055 48.874 22.4637 52.4766 25.0277C52.4766 25.0277 55.8186 27.4937 59.581 24.8759L59.516 25.2843C59.5007 25.3802 59.5175 25.4785 59.5637 25.5641C59.6099 25.6496 59.6831 25.7175 59.7719 25.7575C59.8306 25.7851 59.8949 25.7989 59.9599 25.7989H63.0772C63.1929 25.7997 63.3051 25.7592 63.3935 25.6847C63.4819 25.6102 63.5407 25.5066 63.5591 25.3926L65.4559 13.4853C65.4714 13.3893 65.4547 13.2908 65.4084 13.2052C65.3622 13.1195 65.289 13.0514 65.2 13.0114C65.1411 12.9844 65.0776 12.9702 65.0126 12.9701ZM60.4281 19.5521C60.3054 20.383 59.8836 21.1409 59.2415 21.6842C58.5964 22.23 57.7756 22.5254 56.9298 22.5161C56.5985 22.5198 56.2686 22.4719 55.9521 22.374C54.6078 21.9464 53.841 20.6675 54.0615 19.2803C54.1844 18.447 54.6081 17.687 55.253 17.1433C55.9003 16.5972 56.7238 16.303 57.5715 16.3149C57.9035 16.3114 58.2347 16.3597 58.5514 16.4584C59.8908 16.8833 60.6535 18.1635 60.4322 19.5521H60.4281ZM43.7943 19.8804C45.4808 19.8796 47.112 19.2808 48.3969 18.1911C49.6764 17.1063 50.5234 15.5996 50.7839 13.9447C51.3302 10.5013 48.6126 7.49514 44.7624 7.49514H38.557C38.4412 7.49398 38.3288 7.53427 38.2403 7.60869C38.1517 7.6831 38.0928 7.78672 38.0743 7.90074L35.3083 25.2836C35.2929 25.3797 35.3096 25.4781 35.3558 25.5638C35.4021 25.6494 35.4753 25.7175 35.5642 25.7575C35.623 25.7844 35.6873 25.7989 35.7523 25.7989H39.0355C39.1515 25.8 39.264 25.7595 39.3526 25.6848C39.4412 25.6101 39.4999 25.5062 39.5181 25.3919L40.3313 20.286C40.3486 20.1714 40.4071 20.0669 40.4959 19.9922C40.5847 19.9174 40.6978 19.8774 40.814 19.8797L43.7943 19.8804ZM46.5423 13.7882C46.3397 15.0615 45.346 15.9989 43.4437 15.9989H41.0117L41.7489 11.3683H44.1373C46.1046 11.3718 46.7442 12.521 46.5423 13.7916V13.7882Z" fill="#003087"/>
<path d="M22.569 8.38932C22.643 4.54992 19.4684 1.60449 15.103 1.60449H6.07355C5.86313 1.60439 5.65959 1.67925 5.4996 1.81558C5.33961 1.95191 5.23368 2.14076 5.20089 2.34809L1.58301 24.8996C1.56683 25.0018 1.57303 25.1063 1.60121 25.2058C1.62938 25.3054 1.67885 25.3977 1.74621 25.4764C1.81358 25.555 1.89723 25.6182 1.99141 25.6615C2.0856 25.7049 2.18808 25.7273 2.29179 25.7273H7.64115L6.80514 30.9491C6.78895 31.0513 6.79516 31.1558 6.82334 31.2553C6.85151 31.3549 6.90098 31.4472 6.96834 31.5259C7.0357 31.6046 7.11936 31.6677 7.21354 31.711C7.30772 31.7544 7.4102 31.7768 7.51392 31.7768H11.8717C12.0819 31.7768 12.2693 31.7017 12.4297 31.5658C12.5888 31.4292 12.615 31.2409 12.6482 31.0333L13.9275 23.5255C13.96 23.3186 14.0658 23.0496 14.2255 22.913C14.3852 22.7764 14.5249 22.7019 14.7358 22.7019H17.4022C21.6777 22.7019 25.3046 19.6702 25.9677 15.4542C26.4372 12.4619 25.151 9.73925 22.569 8.38932Z" fill="#001C64"/>
<path d="M8.79996 17.4095L7.46746 25.8375L6.63076 31.1241C6.61467 31.2263 6.62098 31.3307 6.64924 31.4303C6.67751 31.5298 6.72706 31.622 6.79448 31.7006C6.86191 31.7792 6.94561 31.8423 7.03982 31.8856C7.13403 31.9288 7.23652 31.9512 7.34022 31.9511H11.9525C12.1627 31.951 12.366 31.8761 12.5257 31.7397C12.6854 31.6034 12.7911 31.4147 12.8237 31.2075L14.0394 23.5239C14.0721 23.3167 14.178 23.1279 14.3378 22.9916C14.4977 22.8553 14.701 22.7803 14.9113 22.7803H17.6261C21.9016 22.7803 25.5285 19.6693 26.1923 15.4533C26.6625 12.4609 25.1523 9.73763 22.5703 8.3877C22.5634 8.70638 22.5357 9.02438 22.4866 9.33961C21.8235 13.5543 18.1952 16.6659 13.9211 16.6659H9.67193C9.46157 16.6662 9.25819 16.7412 9.09835 16.8777C8.93852 17.0141 8.83271 17.2022 8.79996 17.4095Z" fill="#0070E0"/>
<path d="M7.46382 25.8383H2.09786C1.99416 25.8383 1.89171 25.8158 1.79755 25.7725C1.70339 25.7291 1.61977 25.666 1.55246 25.5873C1.48516 25.5086 1.43575 25.4163 1.40767 25.3167C1.37958 25.2171 1.37347 25.1127 1.38977 25.0105L5.00765 2.12446C5.04042 1.91724 5.14625 1.72849 5.3061 1.59217C5.46595 1.45586 5.66932 1.38092 5.87961 1.38086H15.1013C19.4667 1.38086 22.6413 4.54978 22.5673 8.3885C21.481 7.8201 20.2045 7.49521 18.8063 7.49521H11.1183C10.9079 7.49511 10.7044 7.56997 10.5444 7.7063C10.3844 7.84263 10.2785 8.03147 10.2457 8.23881L8.7977 17.4103L7.46312 25.8383H7.46382Z" fill="#003087"/>
</svg>
