<svg width="26" height="35" viewBox="0 0 26 35" fill="none" xmlns="http://www.w3.org/2000/svg">
<path d="M12.9997 3.62891C9.02326 3.62891 5.79972 6.85245 5.79972 10.8289V11.6217C5.07008 11.7441 4.51401 12.3787 4.51401 13.1432V14.9432C4.51401 15.7213 5.09001 16.3649 5.83894 16.4707C6.10469 19.0172 7.69782 21.1689 9.91401 22.2217V24.5861H9.39972C4.28721 24.5861 0.142578 28.7307 0.142578 33.8432V35.0003H25.8569V33.8432C25.8569 28.7307 21.7122 24.5861 16.5997 24.5861H16.0854V22.2217C18.3016 21.1689 19.8948 19.0172 20.1605 16.4707C20.9094 16.3649 21.4854 15.7213 21.4854 14.9432V13.1432C21.4854 12.3787 20.9294 11.7441 20.1997 11.6217V10.8289C20.1997 6.85245 16.9762 3.62891 12.9997 3.62891Z" fill="#AE5D29"/>
<path d="M9.91406 22.2217V23.2503C10.8783 23.7079 11.9325 23.9446 12.9998 23.9431C14.0671 23.9446 15.1213 23.7079 16.0855 23.2503V22.2217C15.1213 22.6793 14.0671 22.916 12.9998 22.9146C11.9325 22.916 10.8783 22.6793 9.91406 22.2217Z" fill="black" fill-opacity="0.1"/>
<path d="M13.064 27.8003C15.4428 27.8003 17.3712 26.5627 17.3712 25.036C17.3711 24.8961 17.3549 24.7566 17.3228 24.6205C22.0974 24.9895 25.8569 28.9806 25.8569 33.8498V35.0003H0.142578V33.8498C0.142578 28.9362 3.97079 24.9167 8.80739 24.6113C8.77386 24.7504 8.7569 24.8929 8.75686 25.036C8.75686 26.5627 10.6852 27.8003 13.064 27.8003Z" fill="#FFDEB5"/>
<path d="M14.1361 30.5C14.0993 30.5836 14.0651 30.6674 14.0309 30.7511L14.0285 30.7571C14.1144 30.751 14.2 30.7442 14.2856 30.7368C14.2404 30.655 14.1905 30.576 14.1361 30.5ZM12.7704 30.5383C12.7961 30.5306 12.8247 30.522 12.8615 30.5C12.8801 30.5544 12.8944 30.9227 12.6872 30.8826C12.569 30.8599 12.6222 30.6558 12.6556 30.6138C12.6986 30.5598 12.7308 30.5501 12.7704 30.5383Z" fill="white"/>
<path fill-rule="evenodd" clip-rule="evenodd" d="M15.5242 30.4935C15.3729 29.816 15.0058 29.3393 14.4375 28.9588C14.0059 28.6697 13.6004 28.6717 13.0918 28.7338C12.6744 28.7847 12.2753 28.9005 11.9083 29.1111C11.2608 29.4827 10.8908 29.9783 10.8023 30.7246C10.7668 31.0231 10.7613 31.3808 10.8679 31.6657C10.93 31.832 11.0396 31.9655 11.1565 32.0964C11.1762 32.1185 11.2202 32.1571 11.2673 32.1985C11.3442 32.2658 11.4295 32.3406 11.4327 32.364C11.4477 32.4752 11.1501 32.8007 11.0611 32.8981L11.0445 32.9162C11.0162 32.9476 10.9511 32.9926 10.8776 33.0432C10.7466 33.1336 10.5891 33.2422 10.5657 33.3256C10.4595 33.7027 11.3149 33.5688 11.5229 33.5362L11.5242 33.5359C11.7233 33.5048 11.9237 33.4667 12.1173 33.4104C12.2076 33.3842 12.2964 33.353 12.3832 33.317C12.4553 33.287 12.5344 33.2275 12.6127 33.1684C12.7017 33.1016 12.7898 33.0353 12.8661 33.0133C12.939 32.9923 13.038 33.004 13.1368 33.0158C13.2134 33.0248 13.2898 33.0338 13.3535 33.0275C13.5493 33.0081 13.7429 32.9706 13.9319 32.9157C14.2687 32.818 14.5715 32.6499 14.8389 32.4226C15.408 31.9392 15.6888 31.2344 15.5242 30.4935ZM14.8645 31.392C14.7853 31.4137 14.6902 31.2326 14.7258 31.1708C14.8248 30.9994 15.0041 31.3534 14.8645 31.392ZM14.5793 30.1868C14.545 30.3282 14.5952 30.5657 14.6304 30.7077C14.6417 30.754 14.6861 30.7682 14.7266 30.7626C14.797 30.7529 14.7836 30.69 14.7725 30.6371C14.7681 30.6205 14.7657 30.6033 14.7653 30.5861C14.7704 30.4899 14.779 30.2468 14.7431 30.1592C14.6772 29.998 14.6178 30.0289 14.5793 30.1866V30.1868ZM14.4958 31.2578C14.4209 31.3019 14.3858 31.2207 14.3606 31.1625C14.3551 31.1482 14.3484 31.1345 14.3406 31.1213C14.3078 31.0722 14.3054 31.0457 14.3037 31.0288C14.3016 31.0058 14.3011 31.0002 14.2282 30.9789C14.0006 30.912 13.9964 31.0689 13.9919 31.2279C13.9893 31.3207 13.9868 31.4144 13.9398 31.4648C13.7112 31.7103 13.8656 30.9917 13.8934 30.8628L13.8962 30.8492C13.901 30.8268 13.9064 30.7957 13.9127 30.7593V30.7592C13.9562 30.5082 14.0431 30.0064 14.2555 30.3594C14.3182 30.4638 14.6039 31.1939 14.4956 31.2579L14.4958 31.2578ZM13.1629 31.1351C13.2394 31.2127 13.6377 31.1634 13.6802 31.0914C13.7683 30.9401 13.4424 30.9822 13.3236 30.9975C13.3113 30.9993 13.2989 31.0008 13.2866 31.0019C13.2917 30.9051 13.3025 30.8077 13.3133 30.7102C13.3285 30.5748 13.3435 30.4393 13.3431 30.3048L13.3435 30.2823C13.3456 30.2031 13.3499 30.0334 13.22 30.1272C13.1752 30.1594 13.1765 30.2802 13.1774 30.361C13.1777 30.3858 13.1779 30.4067 13.1768 30.4204C13.1742 30.4503 13.1669 30.4966 13.158 30.5516C13.1271 30.746 13.0788 31.0497 13.1629 31.1351ZM13.0632 30.7777C12.88 31.5146 12.1661 31.1168 12.4858 30.5574C12.5448 30.4542 12.5925 30.4314 12.6667 30.3959C12.6946 30.3826 12.7261 30.3675 12.7634 30.3458C12.7698 30.3419 12.7702 30.3278 12.7707 30.3103C12.7719 30.275 12.7733 30.2267 12.826 30.2275C13.0523 30.231 13.1067 30.605 13.0632 30.7778V30.7777ZM12.1632 30.8848C12.1587 30.997 12.1461 31.3097 12.2883 31.2703C12.3862 31.2434 12.3585 29.9875 12.2458 29.9867C12.128 29.9861 12.1501 30.2152 12.1694 30.4142C12.1819 30.5433 12.1931 30.6598 12.1643 30.6927C12.1499 30.709 12.098 30.7048 12.0557 30.7013C12.0384 30.6991 12.0209 30.6986 12.0034 30.6998C11.8568 30.727 11.7604 30.7117 11.7154 30.6218C11.7033 30.5978 11.7027 30.5311 11.7022 30.457C11.7008 30.2859 11.699 30.0755 11.5537 30.2631C11.5556 30.358 11.5571 30.4529 11.5582 30.5476C11.6014 30.6396 11.5852 30.6955 11.5098 30.7156C11.5073 30.755 11.5296 30.7904 11.5456 30.8156C11.5539 30.829 11.5606 30.8395 11.5609 30.8465C11.5615 30.8645 11.5597 30.8944 11.5577 30.9309C11.5483 31.0932 11.5313 31.3865 11.6766 31.3688C11.7681 31.3578 11.7391 31.0747 11.7239 30.9278C11.7208 30.9022 11.7186 30.8765 11.7173 30.8507C11.756 30.8516 11.7953 30.8534 11.8347 30.8552C11.9448 30.8603 12.0566 30.8655 12.1641 30.8517C12.1643 30.8582 12.1637 30.8697 12.1632 30.8848Z" fill="white"/>
<path fill-rule="evenodd" clip-rule="evenodd" d="M10.5723 18.174C10.7083 19.3944 11.7433 20.3432 13 20.3432C14.2605 20.3432 15.298 19.3885 15.4289 18.1627C15.4395 18.0641 15.3293 17.9004 15.1911 17.9004H10.8256C10.6867 17.9004 10.5588 18.0518 10.5723 18.174Z" fill="black" fill-opacity="0.7"/>
<path d="M15.057 17.9004H11.0713C11.0713 18.0709 11.139 18.2344 11.2596 18.355C11.3801 18.4755 11.5436 18.5432 11.7141 18.5432H14.4141C14.5846 18.5432 14.7482 18.4755 14.8687 18.355C14.9893 18.2344 15.057 18.0709 15.057 17.9004Z" fill="white"/>
<path d="M14.6322 19.7179C14.3682 19.4588 14.0129 19.3139 13.643 19.3145C13.4116 19.3145 13.193 19.3701 13.0001 19.4687C12.8073 19.3701 12.5887 19.3145 12.3573 19.3145C11.9722 19.3145 11.6231 19.4684 11.3682 19.7179C11.816 20.1211 12.3975 20.3439 13.0001 20.343C13.6276 20.343 14.1996 20.1065 14.6322 19.7179Z" fill="#FF4F6D"/>
<path fill-rule="evenodd" clip-rule="evenodd" d="M11.457 15.7148C11.457 16.2829 12.1478 16.7434 12.9999 16.7434C13.8519 16.7434 14.5427 16.2829 14.5427 15.7148" fill="black" fill-opacity="0.16"/>
<path d="M9.27049 12.6289C8.64897 12.6289 8.1145 12.9694 7.87703 13.4578C7.8076 13.6006 7.92679 13.696 8.04122 13.6024C8.35454 13.3462 8.7895 13.1874 9.27036 13.1874C9.2809 13.1874 9.29132 13.1874 9.30173 13.1877C9.22426 13.2886 9.17297 13.4072 9.15242 13.5327C9.13187 13.6583 9.1427 13.787 9.18395 13.9074C9.2252 14.0278 9.29559 14.1361 9.38884 14.2227C9.48209 14.3092 9.59531 14.3714 9.71841 14.4036C9.84151 14.4358 9.97067 14.4371 10.0944 14.4073C10.2181 14.3775 10.3325 14.3176 10.4274 14.2328C10.5224 14.1481 10.5949 14.0412 10.6385 13.9216C10.6821 13.8021 10.6954 13.6736 10.6773 13.5477C10.678 13.5153 10.6725 13.483 10.6612 13.4527C10.6555 13.4366 10.6493 13.4206 10.6427 13.4048C10.6001 13.2823 10.5273 13.1725 10.4311 13.0855C10.1579 12.7982 9.72164 12.6289 9.27049 12.6289ZM16.7276 12.6289C16.1061 12.6289 15.5716 12.9694 15.3342 13.4578C15.2647 13.6006 15.3839 13.696 15.4985 13.6024C15.8117 13.3462 16.2468 13.1874 16.7276 13.1874C16.7379 13.1874 16.7485 13.1874 16.7589 13.1877C16.6814 13.2886 16.6301 13.4072 16.6096 13.5327C16.589 13.6583 16.5998 13.787 16.6411 13.9074C16.6823 14.0278 16.7527 14.1361 16.846 14.2227C16.9392 14.3092 17.0525 14.3714 17.1756 14.4036C17.2987 14.4358 17.4278 14.4371 17.5515 14.4073C17.6752 14.3775 17.7896 14.3176 17.8846 14.2328C17.9795 14.1481 18.052 14.0412 18.0956 13.9216C18.1392 13.8021 18.1525 13.6736 18.1345 13.5477C18.1351 13.5153 18.1297 13.483 18.1184 13.4527C18.1126 13.4366 18.1065 13.4206 18.0999 13.4048C18.0573 13.2823 17.9845 13.1725 17.8882 13.0855C17.615 12.7982 17.1787 12.6289 16.7276 12.6289Z" fill="black" fill-opacity="0.6"/>
<path fill-rule="evenodd" clip-rule="evenodd" d="M13.1279 11.1911C13.1279 11.1907 13.1279 11.1907 13.1279 11.1911V11.1911ZM18.158 10.5202C18.3461 10.5922 19.3396 11.3465 19.1692 11.697C19.162 11.7118 19.1514 11.7246 19.1382 11.7345C19.1251 11.7444 19.1098 11.751 19.0936 11.7538C19.0774 11.7566 19.0608 11.7555 19.0451 11.7507C19.0294 11.7458 19.015 11.7373 19.0033 11.7258C18.9332 11.6594 18.8006 11.5829 18.7839 11.5736C18.1274 11.2091 17.3312 11.3261 16.6329 11.4566C15.8461 11.6038 15.0759 11.9049 14.2689 11.8012C14.0066 11.7674 13.487 11.6441 13.2884 11.4202C13.2278 11.3518 13.2799 11.2427 13.3699 11.2358C13.5554 11.2217 13.7377 11.1257 13.9266 11.072C14.3963 10.9385 14.8778 10.8711 15.3556 10.7776C16.2067 10.6107 17.306 10.1952 18.158 10.5202Z" fill="black"/>
<path fill-rule="evenodd" clip-rule="evenodd" d="M13.3544 11.1831C13.2039 11.1882 12.9948 11.6404 13.2823 11.6558C13.5697 11.6711 13.5047 11.1778 13.3543 11.1831H13.3544ZM12.8714 11.187C12.8715 11.1867 12.8715 11.1867 12.8714 11.187V11.187ZM7.84142 10.5163C7.65319 10.5883 6.65985 11.3426 6.83008 11.6932C6.8373 11.708 6.84793 11.7208 6.86108 11.7307C6.87422 11.7406 6.88952 11.7472 6.90572 11.75C6.92192 11.7528 6.93855 11.7517 6.95425 11.7469C6.96996 11.742 6.98429 11.7335 6.99606 11.722C7.06626 11.6554 7.19882 11.5789 7.21553 11.5697C7.87202 11.2053 8.66813 11.3222 9.36653 11.4528C10.1534 11.5999 10.9234 11.901 11.7306 11.7972C11.9929 11.7634 12.5124 11.6403 12.7111 11.4164C12.7716 11.348 12.7195 11.2387 12.6295 11.2319C12.4439 11.2178 12.2616 11.1219 12.0728 11.0681C11.603 10.9347 11.1215 10.8672 10.6438 10.7737C9.79262 10.6069 8.69333 10.1913 7.84142 10.5163Z" fill="black"/>
<path fill-rule="evenodd" clip-rule="evenodd" d="M12.8679 11.0588C13.0183 11.0639 13.223 11.6373 12.9354 11.6596C12.6478 11.6818 12.7173 11.0534 12.8679 11.0586V11.0588Z" fill="black"/>
<path d="M18.5067 6.19031L18.5028 6.19262C18.6001 6.30551 18.6939 6.42148 18.7839 6.54053C19.6736 7.73843 20.1998 9.22202 20.1998 10.8289V11.536C20.1998 9.50822 19.3384 7.68148 17.9615 6.40206C16.4721 6.88678 11.5868 8.23729 7.98051 6.45606C6.6372 7.73291 5.79981 9.53676 5.79981 11.536V10.8289C5.79739 9.28422 6.29404 7.78008 7.21577 6.54053C7.30706 6.41968 7.4022 6.30203 7.5012 6.18748C7.5 6.18654 7.4988 6.1856 7.4976 6.18465C8.81841 4.62161 10.7933 3.62891 12.9998 3.62891C15.2091 3.62891 17.186 4.62405 18.5067 6.19031Z" fill="black" fill-opacity="0.16"/>
<path d="M7.79756 5.85127C6.56019 7.14419 5.79995 8.89764 5.79995 10.8288V11.6216C5.48397 11.6748 5.19248 11.8253 4.96616 12.0521L5.05642 9.8186C5.12842 8.03351 5.98651 6.45967 7.28881 5.42493C7.00505 4.93083 7.10174 4.0964 8.29192 3.74154C8.94314 3.5474 9.26546 3.0875 9.60772 2.59931C10.0581 1.9571 10.5427 1.2659 11.8561 1.06674C13.1245 0.874657 13.5567 0.953599 14.0473 1.04309C14.4507 1.11663 14.8938 1.1975 15.8736 1.14106C17.1403 1.06777 18.0416 0.627671 18.6282 0.341214C19.0476 0.136399 19.306 0.0101423 19.4222 0.152599C21.4048 2.58299 20.3181 4.49703 18.6253 5.54656C19.9032 6.63144 20.7142 8.24964 20.7142 10.0574V11.8066C20.5553 11.7145 20.3811 11.6518 20.1999 11.6214V10.8288C20.1999 8.8673 19.4155 7.08903 18.1435 5.79046C17.1445 6.14326 11.6646 7.91741 7.79756 5.85127ZM24.6498 28.064C25.0431 28.7842 25.1704 29.494 25.0997 30.1697C23.6779 26.8845 20.4073 24.5859 16.5999 24.5859H16.0857V22.2216C18.3397 21.1509 19.949 18.9436 20.1731 16.3403C20.3638 16.3118 20.5474 16.2476 20.7142 16.151V18.8142C20.7142 21.4832 22.1896 23.9287 23.5616 26.2026C23.9437 26.8359 24.3178 27.456 24.6498 28.064ZM4.73242 17.8364L4.81741 15.7331C5.06025 16.0611 5.42318 16.2794 5.82669 16.3403C6.05092 18.9436 7.66025 21.1509 9.91424 22.2216V24.5859H9.39995C7.96034 24.5859 6.59735 24.9146 5.38209 25.5008C4.99818 23.15 4.82962 20.5286 4.73242 17.8364Z" fill="#C93305"/>
<path fill-rule="evenodd" clip-rule="evenodd" d="M7.58421 5.73233C11.856 8.21376 18.3028 5.73233 18.3028 5.73233C20.171 4.73308 21.5282 2.73418 19.4222 0.152593C19.1434 -0.18915 18.0457 1.01569 15.8736 1.14105C13.7016 1.26628 14.1673 0.716635 11.856 1.06686C9.54467 1.41709 9.80001 3.29166 8.29187 3.74153C6.78373 4.19128 7.03136 5.41116 7.58421 5.73233Z" fill="white" fill-opacity="0.2"/>
</svg>
