<svg width="296" height="123" viewBox="0 0 296 123" fill="none" xmlns="http://www.w3.org/2000/svg">
<path opacity="0.5" d="M4.43333 40.0479L2 36.2342V123H294V19.4538L291.567 20.7123C289.133 22.009 284.267 24.526 279.4 21.742C274.533 18.958 269.667 10.7967 264.8 13.2375C259.933 15.6401 255.067 28.6067 250.2 30.9712C245.333 33.2976 240.467 25.06 235.6 19.7208C230.733 14.3816 225.867 11.9408 221 14.3816C216.133 16.7842 211.267 24.0303 206.4 30.8187C201.533 37.6452 196.667 43.976 191.8 40.1242C186.933 36.2342 182.067 22.1234 177.2 16.2884C172.333 10.4153 167.467 12.8561 162.6 15.5638C157.733 18.3097 152.867 21.3607 148 28.6067C143.133 35.8528 138.267 47.2939 133.4 49.2008C128.533 51.1077 123.667 43.4802 118.8 38.2173C113.933 32.9162 109.067 30.0178 104.2 29.8271C99.3333 29.6364 94.4667 32.1535 89.6 33.6408C84.7333 35.09 79.8667 35.4714 75 39.8572C70.1333 44.243 65.2667 52.6331 60.4 46.0354C55.5333 39.3995 50.6667 17.8139 45.8 7.93638C40.9333 -1.90301 36.0667 0.00385189 31.2 10.4916C26.3333 20.9793 21.4667 40.0479 16.6 45.7684C11.7333 51.489 6.86667 43.8616 4.43333 40.0479Z" fill="#FFF2E6"/>
<path d="M2 36.2342L4.43333 40.0479C6.86667 43.8616 11.7333 51.489 16.6 45.7684C21.4667 40.0479 26.3333 20.9793 31.2 10.4916C36.0667 0.00385277 40.9333 -1.90301 45.8 7.93638C50.6667 17.8139 55.5333 39.3995 60.4 46.0354C65.2667 52.6331 70.1333 44.243 75 39.8572C79.8667 35.4714 84.7333 35.09 89.6 33.6408C94.4667 32.1535 99.3333 29.6364 104.2 29.8271C109.067 30.0178 113.933 32.9162 118.8 38.2173C123.667 43.4802 128.533 51.1077 133.4 49.2008C138.267 47.2939 143.133 35.8528 148 28.6067C152.867 21.3607 157.733 18.3097 162.6 15.5638C167.467 12.8561 172.333 10.4153 177.2 16.2884C182.067 22.1234 186.933 36.2342 191.8 40.1242C196.667 43.976 201.533 37.6452 206.4 30.8187C211.267 24.0303 216.133 16.7842 221 14.3816C225.867 11.9408 230.733 14.3816 235.6 19.7208C240.467 25.06 245.333 33.2976 250.2 30.9712C255.067 28.6067 259.933 15.6401 264.8 13.2375C269.667 10.7967 274.533 18.958 279.4 21.742C284.267 24.526 289.133 22.009 291.567 20.7123L294 19.4538" stroke="#3A6AB3" stroke-width="3" stroke-linecap="round"/>
</svg>
