<svg width="32" height="32" viewBox="0 0 32 32" fill="none" xmlns="http://www.w3.org/2000/svg">
<rect width="32" height="32" rx="16" fill="#2B7CF8"/>
<path d="M10.8393 19.0622C10.0938 17.8056 9.83277 16.32 10.1051 14.8845C10.3775 13.4489 11.1645 12.1622 12.3184 11.2659C13.4724 10.3696 14.9138 9.92534 16.3721 10.0166C17.8304 10.1079 19.2052 10.7283 20.2384 11.7615C21.2715 12.7947 21.892 14.1695 21.9833 15.6278C22.0745 17.0861 21.6303 18.5275 20.734 19.6814C19.8377 20.8354 18.551 21.6224 17.1154 21.8947C15.6799 22.1671 14.1943 21.906 12.9377 21.1606L12.9377 21.1605L10.8654 21.7526C10.7796 21.7771 10.6889 21.7782 10.6026 21.7559C10.5163 21.7335 10.4375 21.6885 10.3745 21.6254C10.3114 21.5624 10.2664 21.4836 10.244 21.3973C10.2216 21.311 10.2228 21.2202 10.2473 21.1345L10.8393 19.0622L10.8393 19.0622Z" fill="white"/>
<path d="M16 16.75C16.4142 16.75 16.75 16.4142 16.75 16C16.75 15.5858 16.4142 15.25 16 15.25C15.5858 15.25 15.25 15.5858 15.25 16C15.25 16.4142 15.5858 16.75 16 16.75Z" fill="#FF6636"/>
<path d="M13 16.75C13.4142 16.75 13.75 16.4142 13.75 16C13.75 15.5858 13.4142 15.25 13 15.25C12.5858 15.25 12.25 15.5858 12.25 16C12.25 16.4142 12.5858 16.75 13 16.75Z" fill="#FF6636"/>
<path d="M19 16.75C19.4142 16.75 19.75 16.4142 19.75 16C19.75 15.5858 19.4142 15.25 19 15.25C18.5858 15.25 18.25 15.5858 18.25 16C18.25 16.4142 18.5858 16.75 19 16.75Z" fill="#FF6636"/>
</svg>
