<svg width="46" height="46" viewBox="0 0 46 46" fill="none" xmlns="http://www.w3.org/2000/svg">
<path d="M18.209 29.8692V16.1306C18.2093 15.9587 18.2558 15.79 18.3437 15.6423C18.4315 15.4945 18.5575 15.3732 18.7084 15.2908C18.8593 15.2085 19.0296 15.1683 19.2014 15.1744C19.3732 15.1805 19.5401 15.2327 19.6848 15.3256L30.3722 22.193C30.5075 22.2797 30.6188 22.399 30.6959 22.54C30.7731 22.681 30.8135 22.8392 30.8135 22.9999C30.8135 23.1606 30.7731 23.3188 30.6959 23.4598C30.6188 23.6008 30.5075 23.7201 30.3722 23.8068L19.6848 30.6761C19.5401 30.769 19.3732 30.8212 19.2014 30.8273C19.0296 30.8334 18.8593 30.7932 18.7084 30.7109C18.5575 30.6286 18.4315 30.5072 18.3437 30.3594C18.2558 30.2117 18.2093 30.043 18.209 29.8712V29.8692Z" fill="white"/>
<path d="M1.91602 23.0003C1.91602 11.3566 11.3556 1.91699 22.9993 1.91699C34.6431 1.91699 44.0827 11.3566 44.0827 23.0003C44.0827 34.6441 34.6431 44.0837 22.9993 44.0837C11.3556 44.0837 1.91602 34.6441 1.91602 23.0003ZM22.9993 4.79199C18.1702 4.79199 13.5388 6.71036 10.1241 10.1251C6.70939 13.5398 4.79102 18.1712 4.79102 23.0003C4.79102 27.8295 6.70939 32.4608 10.1241 35.8756C13.5388 39.2903 18.1702 41.2087 22.9993 41.2087C27.8285 41.2087 32.4599 39.2903 35.8746 35.8756C39.2893 32.4608 41.2077 27.8295 41.2077 23.0003C41.2077 18.1712 39.2893 13.5398 35.8746 10.1251C32.4599 6.71036 27.8285 4.79199 22.9993 4.79199Z" fill="white"/>
</svg>
