<svg width="44" height="44" viewBox="0 0 44 44" fill="none" xmlns="http://www.w3.org/2000/svg">
<path d="M21.992 0.75C24.7825 0.75 27.5458 1.29965 30.124 2.36756C32.7021 3.43547 35.0447 5.00074 37.018 6.97398C38.9912 8.94722 40.5565 11.2898 41.6244 13.868C42.6923 16.4461 43.242 19.2094 43.242 22C43.242 27.6358 41.0031 33.0409 37.018 37.026C33.0328 41.0112 27.6278 43.25 21.992 43.25C19.2014 43.25 16.4381 42.7003 13.8599 41.6324C11.2818 40.5645 8.93918 38.9993 6.96594 37.026C2.98079 33.0409 0.741959 27.6358 0.741959 22C0.741959 16.3641 2.98079 10.9591 6.96594 6.97398C10.9511 2.98883 16.3561 0.75 21.992 0.75ZM13.492 12.8837V19.9812L28.6645 22L13.492 24.0187V31.1162L34.742 22L13.492 12.8837Z" fill="#2B7CF8"/>
</svg>
