<svg width="20" height="20" viewBox="0 0 20 20" fill="none" xmlns="http://www.w3.org/2000/svg">
<path d="M10.0737 0C4.78366 0 0.499908 4.29333 0.499908 9.58333C0.499908 14.8733 4.78366 19.1667 10.0737 19.1667C15.3732 19.1667 19.6666 14.8733 19.6666 9.58333C19.6666 4.29333 15.3732 0 10.0737 0ZM6.72908 5.75C7.52449 5.75 8.16658 6.39208 8.16658 7.1875C8.16658 7.98292 7.52449 8.625 6.72908 8.625C5.93366 8.625 5.29158 7.98292 5.29158 7.1875C5.29158 6.39208 5.93366 5.75 6.72908 5.75ZM10.0832 15.3333C7.89824 15.3333 6.03908 13.7425 5.29158 11.5H14.8749C14.1274 13.7425 12.2682 15.3333 10.0832 15.3333ZM13.4374 8.625C12.642 8.625 11.9999 7.98292 11.9999 7.1875C11.9999 6.39208 12.642 5.75 13.4374 5.75C14.2328 5.75 14.8749 6.39208 14.8749 7.1875C14.8749 7.98292 14.2328 8.625 13.4374 8.625Z" fill="#2B7CF8"/>
</svg>
