<svg width="32" height="32" viewBox="0 0 32 32" fill="none" xmlns="http://www.w3.org/2000/svg">
<rect width="32" height="32" rx="16" fill="#2B7CF8"/>
<path d="M16.2757 19.9208L19.4279 21.9179C19.8308 22.1732 20.3311 21.7935 20.2115 21.3232L19.3008 17.7405C19.2752 17.6407 19.2782 17.5357 19.3096 17.4376C19.3409 17.3395 19.3994 17.2522 19.4781 17.1858L22.3049 14.8331C22.6763 14.5239 22.4846 13.9075 22.0074 13.8765L18.3159 13.637C18.2165 13.6299 18.1211 13.5947 18.0409 13.5354C17.9607 13.4762 17.899 13.3955 17.8629 13.3025L16.4861 9.83549C16.4487 9.73685 16.3821 9.65194 16.2953 9.59201C16.2085 9.53209 16.1055 9.5 16 9.5C15.8945 9.5 15.7915 9.53209 15.7047 9.59201C15.6179 9.65194 15.5513 9.73685 15.5139 9.83549L14.1371 13.3025C14.101 13.3955 14.0393 13.4762 13.9591 13.5354C13.8789 13.5947 13.7836 13.6299 13.6841 13.637L9.99263 13.8765C9.51544 13.9075 9.32373 14.5239 9.69515 14.8331L12.5219 17.1858C12.6006 17.2522 12.6591 17.3395 12.6904 17.4376C12.7218 17.5357 12.7248 17.6407 12.6992 17.7405L11.8546 21.063C11.7111 21.6274 12.3114 22.083 12.795 21.7767L15.7243 19.9208C15.8067 19.8683 15.9023 19.8405 16 19.8405C16.0977 19.8405 16.1933 19.8683 16.2757 19.9208Z" fill="white"/>
</svg>
