<svg width="23" height="23" viewBox="0 0 23 23" fill="none" xmlns="http://www.w3.org/2000/svg">
<path d="M8.7712 5.18299C9.98541 3.00566 10.592 1.91699 11.4996 1.91699C12.4071 1.91699 13.0137 3.00566 14.2279 5.18299L14.5423 5.74649C14.8873 6.36558 15.0598 6.67512 15.3281 6.87924C15.5964 7.08337 15.9319 7.15908 16.6027 7.31049L17.2122 7.44849C19.5697 7.98228 20.7475 8.2487 21.0283 9.15049C21.3081 10.0513 20.505 10.9915 18.8979 12.8707L18.482 13.3566C18.0258 13.8904 17.7968 14.1578 17.6942 14.4875C17.5917 14.8181 17.6262 15.1746 17.6952 15.8866L17.7584 16.5354C18.0009 19.0434 18.1226 20.2969 17.3885 20.8537C16.6544 21.4114 15.5504 20.9025 13.3444 19.8867L12.7722 19.6241C12.1455 19.3347 11.8321 19.191 11.4996 19.191C11.167 19.191 10.8537 19.3347 10.2259 19.6241L9.65574 19.8867C7.4487 20.9025 6.3447 21.4105 5.61157 20.8546C4.87653 20.2969 4.99824 19.0434 5.2407 16.5354L5.30395 15.8876C5.37295 15.1746 5.40745 14.8181 5.30395 14.4884C5.20237 14.1578 4.97332 13.8904 4.51716 13.3576L4.10124 12.8707C2.49412 10.9924 1.69103 10.0523 1.97087 9.15049C2.25166 8.2487 3.43041 7.98133 5.78791 7.44849L6.39741 7.31049C7.06728 7.15908 7.40174 7.08337 7.67103 6.87924C7.93937 6.67512 8.11187 6.36558 8.45687 5.74649L8.7712 5.18299Z" fill="#01E0C0"/>
</svg>
