<svg width="26" height="35" viewBox="0 0 26 35" fill="none" xmlns="http://www.w3.org/2000/svg">
<path d="M12.9997 3.62891C9.02326 3.62891 5.79972 6.85245 5.79972 10.8289V11.6217C5.07008 11.7441 4.51401 12.3787 4.51401 13.1432V14.9432C4.51401 15.7213 5.09001 16.3649 5.83894 16.4707C6.10469 19.0172 7.69782 21.1689 9.91401 22.2217V24.5861H9.39972C4.28721 24.5861 0.142578 28.7307 0.142578 33.8432V35.0003H25.8569V33.8432C25.8569 28.7307 21.7122 24.5861 16.5997 24.5861H16.0854V22.2217C18.3016 21.1689 19.8948 19.0172 20.1605 16.4707C20.9094 16.3649 21.4854 15.7213 21.4854 14.9432V13.1432C21.4854 12.3787 20.9294 11.7441 20.1997 11.6217V10.8289C20.1997 6.85245 16.9762 3.62891 12.9997 3.62891Z" fill="#614335"/>
<path d="M9.91406 22.2217V23.2503C10.8783 23.7079 11.9325 23.9446 12.9998 23.9431C14.0671 23.9446 15.1213 23.7079 16.0855 23.2503V22.2217C15.1213 22.6793 14.0671 22.916 12.9998 22.9146C11.9325 22.916 10.8783 22.6793 9.91406 22.2217Z" fill="black" fill-opacity="0.1"/>
<path d="M21.2286 25.8247V35.0006H4.77148V25.8247C5.80091 25.2289 6.93617 24.8383 8.11434 24.6748V30.3721H17.8858V24.6748C19.0639 24.8383 20.1992 25.2288 21.2286 25.8247Z" fill="#929598"/>
<path d="M7.08552 31.5296C7.08552 31.614 7.06889 31.6976 7.03658 31.7756C7.00428 31.8536 6.95693 31.9245 6.89723 31.9841C6.83754 32.0438 6.76667 32.0912 6.68867 32.1235C6.61068 32.1558 6.52708 32.1724 6.44266 32.1724C6.35824 32.1724 6.27465 32.1558 6.19665 32.1235C6.11866 32.0912 6.04779 32.0438 5.98809 31.9841C5.9284 31.9245 5.88105 31.8536 5.84874 31.7756C5.81643 31.6976 5.7998 31.614 5.7998 31.5296C5.7998 31.3591 5.86753 31.1956 5.98809 31.075C6.10865 30.9544 6.27217 30.8867 6.44266 30.8867C6.61316 30.8867 6.77667 30.9544 6.89723 31.075C7.01779 31.1956 7.08552 31.3591 7.08552 31.5296ZM20.1998 31.5296C20.1998 31.7001 20.1321 31.8636 20.0115 31.9841C19.891 32.1047 19.7274 32.1724 19.5569 32.1724C19.3865 32.1724 19.2229 32.1047 19.1024 31.9841C18.9818 31.8636 18.9141 31.7001 18.9141 31.5296C18.9141 31.3591 18.9818 31.1956 19.1024 31.075C19.2229 30.9544 19.3865 30.8867 19.5569 30.8867C19.7274 30.8867 19.891 30.9544 20.0115 31.075C20.1321 31.1956 20.1998 31.3591 20.1998 31.5296Z" fill="#F4F4F4"/>
<path fill-rule="evenodd" clip-rule="evenodd" d="M9.78566 18.2358C9.96694 19.4728 11.3365 20.4718 12.9999 20.4718C14.6673 20.4718 16.0401 19.4668 16.2142 18.1241C16.2272 18.0727 16.1853 17.9004 15.9347 17.9004H10.0652C9.83503 17.9004 9.76894 18.0598 9.78566 18.2358Z" fill="black" fill-opacity="0.7"/>
<path d="M15.057 17.9004H11.0713C11.0713 18.0709 11.139 18.2344 11.2596 18.355C11.3801 18.4755 11.5436 18.5432 11.7141 18.5432H14.4141C14.5846 18.5432 14.7482 18.4755 14.8687 18.355C14.9893 18.2344 15.057 18.0709 15.057 17.9004Z" fill="white"/>
<path d="M11.5859 19.2508L11.5861 19.2594L11.5859 19.2675V20.4079C11.5859 21.2245 12.248 21.8865 13.0645 21.8865C13.8811 21.8865 14.5431 21.2245 14.5431 20.4079V19.2675L14.543 19.2594L14.5431 19.2508C14.5431 19.0023 14.1689 18.8008 13.7074 18.8008C13.4489 18.8008 13.2178 18.8639 13.0645 18.9633C12.9113 18.8639 12.6801 18.8008 12.4217 18.8008C11.9601 18.8008 11.5859 19.0023 11.5859 19.2508Z" fill="#FF4F6D"/>
<path fill-rule="evenodd" clip-rule="evenodd" d="M11.457 15.7148C11.457 16.2829 12.1478 16.7434 12.9999 16.7434C13.8519 16.7434 14.5427 16.2829 14.5427 15.7148" fill="black" fill-opacity="0.16"/>
<path fill-rule="evenodd" clip-rule="evenodd" d="M7.87703 13.4578C8.1145 12.9694 8.64897 12.6289 9.27049 12.6289C9.88969 12.6289 10.4226 12.967 10.6612 13.4527C10.7322 13.5969 10.6313 13.7149 10.5296 13.6275C10.2145 13.3566 9.7669 13.1874 9.27049 13.1874C8.78963 13.1874 8.35454 13.3462 8.04134 13.6024C7.92679 13.696 7.8076 13.6006 7.87703 13.4578ZM15.3342 13.4578C15.5716 12.9694 16.1061 12.6289 16.7276 12.6289C17.3468 12.6289 17.8798 12.967 18.1184 13.4527C18.1894 13.5969 18.0884 13.7149 17.9867 13.6275C17.6716 13.3566 17.224 13.1874 16.7276 13.1874C16.2468 13.1874 15.8117 13.3462 15.4985 13.6024C15.3839 13.696 15.2647 13.6006 15.3342 13.4578Z" fill="black" fill-opacity="0.6"/>
<path d="M7.80949 11.7498C8.31285 11.0414 9.69281 10.6444 10.8815 10.9362C10.9145 10.9449 10.9489 10.947 10.9827 10.9422C11.0165 10.9375 11.049 10.9261 11.0783 10.9086C11.1076 10.8912 11.1332 10.8681 11.1535 10.8407C11.1739 10.8132 11.1885 10.7821 11.1967 10.7489C11.2048 10.7158 11.2063 10.6813 11.201 10.6476C11.1957 10.6139 11.1837 10.5816 11.1658 10.5525C11.1478 10.5235 11.1243 10.4983 11.0966 10.4785C11.0688 10.4586 11.0374 10.4445 11.0041 10.4369C9.62364 10.0978 8.02575 10.5577 7.39035 11.4517C7.37078 11.4792 7.35683 11.5103 7.34928 11.5432C7.34173 11.5761 7.34074 11.6102 7.34636 11.6435C7.35199 11.6768 7.36411 11.7087 7.38205 11.7373C7.39999 11.7659 7.42339 11.7907 7.45091 11.8103C7.47843 11.8298 7.50954 11.8438 7.54245 11.8513C7.57537 11.8589 7.60944 11.8599 7.64274 11.8543C7.67604 11.8486 7.7079 11.8365 7.73652 11.8186C7.76513 11.8006 7.78992 11.7772 7.80949 11.7497V11.7498ZM18.1904 11.7498C17.687 11.0414 16.307 10.6444 15.1184 10.9362C15.0854 10.9449 15.051 10.947 15.0172 10.9422C14.9834 10.9375 14.9509 10.9261 14.9215 10.9086C14.8922 10.8912 14.8666 10.8681 14.8463 10.8407C14.826 10.8132 14.8113 10.7821 14.8032 10.7489C14.7951 10.7158 14.7936 10.6813 14.7989 10.6476C14.8042 10.6139 14.8162 10.5816 14.8341 10.5525C14.852 10.5235 14.8755 10.4983 14.9033 10.4785C14.931 10.4586 14.9625 10.4445 14.9957 10.4369C16.3762 10.0978 17.9741 10.5577 18.6096 11.4518C18.6491 11.5074 18.665 11.5764 18.6536 11.6436C18.6423 11.7109 18.6046 11.7709 18.5491 11.8104C18.4935 11.8499 18.4245 11.8657 18.3572 11.8544C18.29 11.843 18.23 11.8054 18.1905 11.7498H18.1904Z" fill="black" fill-opacity="0.6"/>
<path fill-rule="evenodd" clip-rule="evenodd" d="M19.5157 4.00817C20.2108 3.37174 20.3781 2.08127 19.9835 1.24388C19.4989 0.215956 18.5156 0.0871273 17.5733 0.539313C16.6851 0.965527 15.8945 1.10747 14.9219 0.900984C13.9887 0.702856 13.1034 0.35327 12.1387 0.295927C10.554 0.201685 9.0144 0.789513 7.9344 1.97417C7.7283 2.2002 7.56231 2.45863 7.40532 2.72053C7.27971 2.9301 7.13815 3.1551 7.0848 3.39656C7.05934 3.5115 7.10665 3.79487 7.04944 3.88898C6.98772 3.99056 6.75424 4.08377 6.65485 4.15924C6.45338 4.31198 6.27891 4.48453 6.11742 4.67957C5.77465 5.09383 5.58604 5.52647 5.42725 6.03883C4.89985 7.74176 4.85511 9.76714 5.53705 11.4393C5.62795 11.6623 5.90965 12.1275 6.07525 11.6499C6.10804 11.5556 6.03231 11.2393 6.03244 11.144C6.03308 10.7943 6.22607 8.47886 7.06705 7.18183C7.34091 6.7596 8.60644 5.17868 8.865 5.16583C9.00192 5.3835 10.3924 6.77426 14.0004 6.61123C15.6284 6.53768 16.8804 5.80637 17.181 5.48918C17.3132 6.20057 18.8514 7.26553 19.0858 7.7037C19.763 8.96961 19.9131 11.5999 20.1716 11.5949C20.43 11.59 20.6155 10.9216 20.6688 10.7939C21.0637 9.8457 21.131 8.65551 21.0888 7.63633C21.0339 6.32464 20.4925 4.90727 19.5157 4.00804V4.00817Z" fill="#A55728"/>
</svg>
